<svg width="145" height="113" viewBox="0 0 145 113" fill="none" xmlns="http://www.w3.org/2000/svg">
<path d="M69.0249 89.5965C69.0249 89.5965 71.2815 99.202 83.783 106.346C91.6628 110.847 108.231 115.517 116.69 109.266C126.32 102.146 128.395 95.0991 128.854 92.5047C129.312 89.9103 127.937 82.7545 127.937 82.7545L112.092 77.1191C112.092 77.1191 85.8947 83.5147 85.4362 83.5147C84.9897 83.5268 69.0249 89.5965 69.0249 89.5965Z" fill="#6A009C"/>
<path d="M127.985 95.5939C128.335 94.6889 128.552 93.9166 128.709 93.277C125.909 92.5289 122.663 91.3221 119.719 90.0672C119.96 89.9586 120.202 89.8499 120.431 89.7293C121.879 88.9932 123.303 88.1364 124.329 86.8814C125.439 85.5299 125.946 83.7802 125.885 82.0305L112.092 77.1191C112.092 77.1191 85.8948 83.5147 85.4362 83.5147C84.9777 83.5147 69.0249 89.5845 69.0129 89.5965C68.8077 89.6689 70.4971 93.2167 70.6057 93.3977C72.1382 96.2576 75.6618 100.24 78.0753 102.4C78.0753 102.4 76.9651 99.8415 79.0648 98.8882C79.9939 98.4659 81.1162 98.671 82.0695 99.0451C84.4588 99.9984 87.4514 103.667 94.933 107.601C100.013 110.28 105.238 112.331 106.928 112.259C109.184 112.162 113.275 111.064 113.275 111.064C113.275 111.064 108.062 110.569 99.6875 106.672C97.1534 105.489 87.7772 100.879 86.8843 98.309C86.6309 97.585 85.7258 96.3059 87.367 95.5818C89.8769 94.4596 96.719 100.36 102.596 103.063C109.595 106.273 117.221 108.844 117.221 108.844C118.042 108.216 118.814 107.589 119.538 106.961C115.64 105.96 111.827 104.584 108.147 102.979C104.478 101.386 100.882 99.3226 97.5637 97.054C95.4519 95.606 93.9918 93.1684 96.2604 92.8547C99.9771 92.3358 104.78 95.8714 109.595 98.3693C113.939 100.626 119.152 101.664 124.039 102.279C124.666 101.495 125.692 99.9984 125.692 99.9984C125.692 99.9984 123.846 99.6847 118.392 98.4779C116.002 97.947 113.685 97.2592 111.562 96.0645C111.006 95.7508 109.064 93.7597 111.718 92.8426C114.373 91.9255 116.895 93.7476 120.901 94.6768C124.92 95.6301 127.949 95.6784 127.985 95.5939Z" fill="#6A009C"/>
<path d="M137.168 45.6717C137.168 45.6717 136.866 35.8973 131.617 27.2452C127.092 19.7877 120.636 19.0275 120.636 19.0275C120.636 19.0275 119.357 14.3334 114.868 10.7374C110.379 7.14135 101.147 4.13664 101.147 4.13664C82.6606 -4.18968 71.1365 2.62825 71.1365 2.62825C71.1365 2.62825 43.72 -3.888 21.7699 14.7316C21.7699 14.7316 10.6923 19.9446 6.16715 29.7913C3.66926 35.2457 4.74323 44.1391 4.74323 44.1391C-2.94353 53.0688 -0.83178 67.2115 7.79621 74.2949C11.9111 77.6616 16.9914 79.894 22.2888 80.4612C24.3644 80.6784 25.4142 80.1836 26.283 82.2954C27.5622 85.4087 28.5637 88.6065 31.134 90.8389C33.7526 93.1075 36.8056 94.8693 40.0516 96.076C46.3507 98.405 53.4703 98.6584 59.8296 96.3777C61.9414 95.6175 68.711 95.5451 68.711 95.5451C68.711 95.5451 72.295 98.5015 85.0137 98.0309C97.7325 97.5603 103.102 92.0697 106.011 91.044C108.243 90.2597 110.982 88.5341 113.42 88.9806C114.807 89.234 116.05 89.9459 117.317 90.5493C120.865 92.2507 124.847 93.1799 128.757 92.8179C143.539 91.4543 145.096 74.4276 143.636 62.7225C142.164 50.9088 137.168 45.6717 137.168 45.6717Z" fill="#C144FC"/>
<path d="M27.6142 68.6448C27.3125 69.3326 24.2957 75.9213 21.7616 76.9832C17.3813 78.8295 10.5995 74.437 8.00511 73.2303C7.49829 72.989 7.16041 73.5923 7.16041 73.5923C6.73806 74.1354 7.83617 75.2576 8.39125 75.6558C10.5392 77.2004 15.6919 80.6999 19.5171 81.6532C24.4526 82.884 28.1572 81.6532 28.1572 81.6532C28.1572 81.6532 29.5087 71.7702 29.6173 71.3237C29.7259 70.8772 29.6173 66.9434 29.6173 66.9434L27.6142 68.6448Z" fill="#DBFF00"/>
<path d="M70.7302 96.5319C70.7302 96.5319 68.2443 96.1457 64.4311 96.2061C60.6179 96.2664 55.248 97.3645 55.248 97.3645C55.248 97.3645 59.0371 95.6389 60.7265 94.1305C62.4159 92.6101 62.7538 88.9175 62.4763 86.7213C62.1866 84.4768 61.4264 83.3425 55.6825 82.1479L72.8902 81.1946C67.1221 85.0319 66.0723 92.9359 70.7302 96.5319ZM122.824 60.2219C119.831 60.6201 116.923 60.053 114.341 58.5205C113.218 57.8447 113.098 56.2518 114.087 55.3951C114.751 54.8279 115.704 54.7917 116.44 55.2744C120.616 58.0136 124.863 56.2156 127.132 54.8038C132.924 51.1957 135.796 44.8001 135.41 38.0908C136.568 40.1422 137.413 42.4108 137.618 44.7519C138.137 50.4355 134.046 54.8641 129.473 57.724C127.289 59.0997 125.032 59.9323 122.824 60.2219Z" fill="#6A009C"/>
<path d="M136.13 66.0172C134.827 66.0172 133.415 65.7397 132.075 64.9191C130.7 64.0744 129.928 62.9401 129.24 61.5403C128.673 60.3939 127.876 59.682 126.416 59.7906C125.39 59.875 124.401 60.4543 123.375 60.3095C124.739 57.896 126.923 55.9653 129.493 54.9155C130.676 54.4328 132.003 54.1311 133.21 54.5052C133.342 55.3499 132.775 56.1342 132.45 56.9307C131.882 58.3425 132.112 60.0319 133.029 61.2386C133.656 62.0592 134.851 62.9401 135.949 62.8677C136.673 62.8194 137.18 62.204 137.892 62.1437C140.1 61.9868 140.655 65.2208 138.483 65.7276C137.783 65.8965 136.987 66.0172 136.13 66.0172ZM114.892 21.2723C114.011 21.3809 113.118 21.2844 112.659 20.5121C112.068 19.5105 112.563 18.2555 113.661 17.8694C116.69 16.8075 120.093 17.0006 123.049 18.1831C125.632 19.2209 127.188 20.9827 128.214 22.1774C129.24 23.372 129.94 25.7372 129.94 25.7372C127.369 23.5047 125.909 19.9932 114.892 21.2723ZM103.332 18.9434C100.725 18.8348 103.259 18.9434 103.235 18.9434C99.1081 18.9434 94.1726 17.5194 93.5089 12.8133C92.3143 4.24562 104.961 7.57614 109.594 8.2157C109.594 8.2157 105.938 4.46282 101.147 4.13701C98.915 3.99221 96.6102 4.05254 94.4381 4.63177C92.0488 5.27132 90.8421 7.06932 88.67 7.96229C87.0289 8.62598 85.1585 8.37257 83.4691 7.86575C81.9124 7.39513 76.8563 4.68003 76.7115 8.05883C76.6753 8.98799 77.339 9.78442 78.244 9.91716C81.9124 10.436 86.9806 12.0772 88.8631 15.5766C89.7319 17.1816 89.9371 19.1244 89.4303 20.8741C89.1889 21.7309 88.839 22.829 89.5509 23.372C90.0939 23.7944 90.9266 23.5168 91.4213 23.0341C91.9161 22.5514 92.2298 21.8998 92.7246 21.4171C94.2692 19.8967 95.669 20.9827 97.3101 21.5619C99.2046 22.2377 101.208 22.5635 103.223 22.5635C103.271 22.5635 99.6873 22.2136 103.356 22.5635C107.012 22.9014 105.926 19.052 103.332 18.9434ZM45.3249 15.0095C43.3218 13.1994 42.3685 6.15222 48.1245 2.52002C48.1245 2.52002 44.987 2.62862 42.3685 4.68003C40.1361 6.42977 39.6896 9.45861 40.2205 12.6564C40.3533 13.477 39.7137 14.2251 38.8811 14.1769C35.8884 14.02 32.9079 14.563 30.3376 15.7456C29.3601 16.2041 29.0223 17.435 29.6015 18.3521C29.8403 18.7228 30.2063 18.9936 30.6307 19.1136C31.0551 19.2336 31.5087 19.1945 31.9063 19.0037C34.7903 17.6763 38.9897 16.9644 42.3564 17.8091C45.7714 18.6658 48.1728 19.6553 50.8517 24.3012C51.3102 25.0855 52.2997 25.3631 53.0479 24.8563C53.6271 24.458 53.8685 23.7099 53.6271 23.0583C51.3344 16.7351 48.028 17.447 45.3249 15.0095ZM52.7945 36.7424C52.7299 36.5114 52.6199 36.2956 52.4709 36.1076C52.3219 35.9196 52.137 35.7632 51.9269 35.6475C51.7169 35.5318 51.4858 35.4591 51.2473 35.4337C51.0088 35.4083 50.7677 35.4306 50.5379 35.4995C47.6418 36.3683 43.4545 36.1149 41.5841 34.2324C39.0862 28.4523 37.1917 27.4266 34.1628 26.4009C32.9561 25.9906 31.7494 27.0283 31.8701 28.2833C31.9425 28.9953 32.4131 29.5986 33.1009 29.8038C35.2489 30.4433 37.4089 33.3274 38.5191 36.2718C39.5327 38.9386 39.6534 42.4501 37.3606 44.9601C36.7693 45.6117 36.6487 46.5529 37.1676 47.2649L37.1917 47.3011C37.8554 48.2182 39.1828 48.2906 39.9551 47.458C40.7756 46.565 41.6324 45.4066 41.9944 44.2361C42.3685 42.9931 42.2599 41.883 43.3339 40.8935C44.5285 39.7833 45.6628 40.0126 47.0988 40.0126C48.571 40.0126 50.1518 39.4816 51.5395 38.9869C52.4807 38.6852 53.0841 37.6836 52.7945 36.7424ZM15.7967 53.1054C15.3864 53.1054 14.9882 53.0933 14.5658 53.0571C8.97876 52.5744 6.04645 48.5561 4.71907 44.1516C3.39169 39.7471 4.51393 34.9564 4.51393 34.9564C6.20333 47.9889 12.9971 49.2801 14.8796 49.449C18.4394 49.7628 21.8423 48.2182 22.7715 45.8651C24.2437 42.1484 19.7306 38.5042 17.5223 36.2476C16.0622 34.7513 15.5191 32.2051 15.9053 30.1899C16.0984 29.1522 16.5569 28.1385 17.4137 27.4748C18.2584 26.8232 20.3822 26.2319 20.0926 28.0902C20.0081 28.6695 19.634 29.1522 19.4048 29.6831C17.7516 33.448 23.6282 36.9354 25.2332 39.7229C26.5485 41.9795 27.1277 44.7067 26.1382 47.1925C24.7384 50.7402 20.5029 53.1054 15.7967 53.1054Z" fill="#6A009C"/>
<path d="M14.1354 52.0042C15.1128 52.1248 16.1144 51.9559 16.9953 51.5215C17.84 51.1112 18.6002 50.4596 19.5294 50.3872C19.9759 50.363 20.5309 50.6285 20.4585 51.0629C20.4344 51.2198 21.4601 51.5094 21.3274 51.5939C18.926 53.0902 12.8442 54.5744 17.0435 65.3504C17.3814 66.2072 17.1159 67.1725 16.3316 67.6431C15.4145 68.1982 14.1957 67.8362 13.7613 66.8588C12.6149 64.3367 12.0598 61.5492 12.096 58.7738C12.1322 56.0708 12.4098 53.7056 10.5997 51.4491C10.4066 51.2198 10.2015 50.894 10.3584 50.6406C10.4549 50.4837 10.648 50.4234 10.829 50.3751C11.5771 50.182 12.3736 49.9769 13.1338 50.1337C13.4717 50.2062 17.2487 52.2938 17.2849 52.2214M121.786 69.4291C119.288 69.1274 116.718 69.3084 114.353 70.2014C112.35 70.9616 110.853 72.4941 108.549 71.9873C107.173 71.6856 105.954 70.8047 105.097 69.6825C103.287 67.3294 103.529 64.8556 104.204 62.1767C104.88 59.522 104.808 56.4449 103.613 53.947C103.299 53.2833 102.768 52.692 102.081 52.4506C101.381 52.2093 100.524 52.4144 100.114 53.0299C99.7033 53.6573 99.8602 54.49 100.005 55.2261C100.476 57.4826 101.079 59.9202 100.403 62.1285C99.7636 64.2281 98.8828 66.1106 97.3744 67.7276C94.5145 70.8047 90.3634 72.2166 86.7794 71.3115C84.1367 70.6479 82.0009 68.8016 80.5649 65.9779C80.058 63.7696 79.5271 60.8976 76.7878 60.5839C76.2328 60.5235 75.6294 60.608 75.2071 60.958C74.7847 61.32 74.5916 61.8992 74.5916 62.4543C74.5916 63.842 75.919 64.8798 76.1604 66.2434C76.9206 70.4186 74.1452 75.1972 69.9337 77.514C66.6756 79.312 57.7339 80.3257 49.7213 73.6043C49.3834 73.3147 49.3834 72.7596 49.0576 72.4579C48.8404 72.2648 48.5629 72.1442 48.2853 72.0959C47.0907 71.8666 45.8478 73.0009 45.9564 74.2076C46.0529 75.3058 46.9579 76.1505 47.7664 76.8986C49.8661 78.8535 48.9249 79.6379 48.5629 80.6877C48.4784 80.9532 48.3215 81.1945 48.2974 81.4721C48.225 82.2444 49.4076 81.9909 50.1799 81.9306C50.9522 81.8703 51.652 81.4479 52.4002 81.2307C53.3414 80.9652 57.6494 82.546 58.4941 82.727C60.9437 83.258 61.7884 83.4993 63.9002 83.4993C66.5429 83.4993 68.7874 84.8629 70.7181 83.0528C73.4694 80.4826 75.6053 78.8052 78.0428 77.9726C79.2495 77.5623 80.6976 77.3572 81.7112 78.1415C82.4353 78.6966 82.7611 79.6258 83.0145 80.4946C83.5334 82.2806 83.9195 84.1027 84.6797 85.8042C85.44 87.4935 86.6467 89.0743 88.3361 89.8346C88.867 90.0759 89.4704 90.2328 90.0496 90.1001C90.6288 89.9673 91.1357 89.4726 91.1477 88.8933C91.1598 88.4951 90.9547 88.1331 90.7374 87.8073C89.9048 86.4799 88.9153 85.2491 88.1792 83.8734C87.4431 82.4978 86.9604 80.8928 87.2621 79.3603C87.8172 76.5245 91.0995 75.7281 93.4526 75.0162C95.7091 74.3283 97.9657 73.0371 100.391 73.1699C101.912 73.2543 105.134 75.0282 106.099 76.2108C106.292 76.4521 106.376 76.7538 106.425 77.0676C106.835 79.6137 104.965 81.9065 103.191 83.7648C102.877 84.0906 102.551 84.5854 102.817 84.9595C102.913 85.0922 103.058 85.1646 103.203 85.2129C104.482 85.7076 105.978 85.2732 107.064 84.4406C109.454 82.6305 110.286 79.5293 112.326 77.3813C114.003 75.6316 116.259 74.4852 118.54 73.737C126.697 71.0581 127.12 77.4778 128.58 81.0738C130.04 84.6698 132.2 82.184 132.224 81.1945C132.309 76.5004 129.304 70.322 121.786 69.4291Z" fill="#6A009C"/>
<path d="M123.906 33.0017C123.677 31.4692 122.482 30.0453 120.938 29.997C120.177 29.9729 119.333 30.3711 119.128 31.1072C119.031 31.433 119.079 31.795 119.091 32.1329C119.188 34.6428 117.173 37.0683 114.687 37.4183C111.875 37.8165 109.8 36.0788 107.676 34.6308C105.649 33.2551 103.115 32.3259 100.774 31.6622C94.5348 29.9125 89.1649 31.083 85.0742 36.2357C83.5537 38.1544 82.1057 40.254 79.9698 41.4366C76.6151 43.295 69.5317 43.4277 67.4441 39.7834C64.7049 35.0169 64.6084 20.3674 73.3932 22.0327C76.1083 22.5516 78.1235 24.9047 78.3166 26.6544C78.4373 27.7646 77.7494 28.7299 76.8685 29.4781C76.544 29.7565 76.3293 30.1414 76.263 30.5638C76.1966 30.9862 76.283 31.4184 76.5065 31.7829C77.0858 32.7362 78.389 32.9414 79.2337 32.2294C81.7075 30.1056 82.0936 27.8732 81.9126 26.2562C81.3454 21.1035 75.5412 18.1953 70.9315 18.0626C69.9179 18.0264 68.7474 17.7006 68.3612 16.7473C68.1923 16.337 68.2164 15.8905 68.1802 15.4561C67.9389 12.379 64.7894 9.0364 62.3277 7.44354C61.4226 6.85225 60.2039 7.2384 59.7332 8.20377C59.335 9.0364 59.6488 10.0138 60.4211 10.5207C62.7621 12.0652 64.186 14.3097 64.6566 17.2058C65.1876 20.5364 64.4635 23.9393 63.0638 26.9681C62.3639 28.4886 61.5071 29.9608 60.5055 31.3123C59.6488 32.4828 58.43 33.2672 57.8749 34.667C57.8146 34.8238 57.7542 34.9928 57.8025 35.1496C57.887 35.4513 58.261 35.5358 58.5748 35.5479C59.4678 35.5841 60.3607 35.391 61.1572 35.0169C60.6986 36.7908 61.8812 38.5164 62.8586 40.061C63.8361 41.6056 64.6204 43.7052 63.5102 45.1654C63.462 45.2257 63.4016 45.286 63.3534 45.3584C60.9762 46.36 58.6834 47.7236 56.8975 49.6061C53.8203 52.8642 51.5397 55.7965 47.0386 57.2445C43.0565 58.5357 38.6278 58.3789 34.7543 56.8222C34.0061 56.5205 33.2459 56.1706 32.4374 56.1947C31.6289 56.2188 30.7721 56.786 30.748 57.5945C30.7359 58.0048 30.9411 58.3789 31.1221 58.7529C33.1735 62.9161 29.4086 65.6191 27.8036 69.2393C26.2952 72.6181 25.5229 76.3227 25.5229 80.0273C25.5229 84.0697 26.9107 87.0141 31.9185 92.1547C34.1871 94.4716 37.1557 95.8473 39.6535 96.6558C40.4379 96.9092 40.9327 95.8352 40.2328 95.3887C35.0801 92.1065 34.2716 89.1983 32.7029 86.2056C28.9379 79.0016 33.0528 68.0205 40.1362 62.4455C42.8755 60.2975 46.7611 60.4665 50.0675 61.6008C53.6152 62.8196 55.7149 65.4261 58.3817 67.8515C59.1057 68.5152 60.0349 69.2272 60.9641 68.9376C61.8088 68.6842 62.2311 67.6826 62.1346 66.8138C62.0381 65.9449 61.5433 65.1726 61.0727 64.4365C60.5538 63.628 60.0349 62.8195 59.504 62.0111C58.8161 60.9491 58.1042 59.839 57.887 58.584C57.6456 57.2204 58.8523 52.5022 70.3161 49.5819C72.2589 49.0872 74.2379 49.3044 76.1928 49.8595C78.8234 50.6076 80.7059 52.5384 82.9142 54.0468C83.5296 54.4691 84.2054 54.9156 84.9535 54.9397C85.8948 54.9759 86.8119 54.264 87.0049 53.3348C87.2704 52.0557 86.305 50.9093 85.6655 49.775C83.5417 46.0342 86.0154 41.0384 89.1408 38.6491C91.9404 36.5253 95.6208 35.7409 99.1082 36.1029C104.418 36.646 109.655 40.1937 110.874 45.3826C111.151 46.5531 111.489 48.0615 112.684 48.2183C114.011 48.3993 114.723 46.6255 114.59 45.286C114.458 43.9466 114.023 42.4382 114.856 41.3763C115.242 40.8936 115.821 40.6161 116.388 40.3626C118.017 39.6507 119.719 39.0594 121.179 38.0337C122.639 37.0201 123.858 35.4634 123.967 33.6895C123.954 33.4844 123.942 33.243 123.906 33.0017Z" fill="#DBFF00"/>
</svg>
