<svg width="111" height="86" viewBox="0 0 111 86" fill="none" xmlns="http://www.w3.org/2000/svg">
<path d="M53.2893 68.3752C53.2893 68.3752 55.0033 75.6711 64.4989 81.0972C70.4841 84.516 83.0686 88.0631 89.4937 83.3153C96.8079 77.9075 98.3844 72.5548 98.7327 70.5842C99.081 68.6136 98.0361 63.1783 98.0361 63.1783L86.0016 58.8979C86.0016 58.8979 66.1029 63.7558 65.7546 63.7558C65.4155 63.7649 53.2893 68.3752 53.2893 68.3752Z" fill="black"/>
<path d="M98.0728 72.9306C98.3386 72.2431 98.5036 71.6565 98.6228 71.1708C96.4963 70.6025 94.0308 69.6859 91.7944 68.7327C91.9777 68.6502 92.161 68.5677 92.3351 68.4761C93.435 67.917 94.5166 67.2662 95.2956 66.313C96.1389 65.2864 96.5238 63.9574 96.478 62.6284L86.0017 58.8979C86.0017 58.8979 66.103 63.7558 65.7547 63.7558C65.4064 63.7558 53.2894 68.3661 53.2803 68.3752C53.1244 68.4302 54.4076 71.1249 54.4901 71.2624C55.6542 73.4347 58.3305 76.4594 60.1637 78.1C60.1637 78.1 59.3204 76.1569 60.9153 75.4328C61.621 75.112 62.4734 75.2678 63.1975 75.552C65.0123 76.276 67.2854 79.0624 72.9681 82.0504C76.8268 84.0852 80.7956 85.6433 82.0788 85.5884C83.7927 85.515 86.8999 84.6809 86.8999 84.6809C86.8999 84.6809 82.9403 84.3052 76.5794 81.3446C74.6546 80.4464 67.5329 76.9451 66.8546 74.9928C66.6621 74.4429 65.9747 73.4714 67.2212 72.9214C69.1277 72.069 74.3246 76.551 78.7883 78.6041C84.1044 81.0422 89.8971 82.9945 89.8971 82.9945C90.5203 82.5179 91.1069 82.0412 91.6569 81.5646C88.6964 80.8039 85.8 79.759 83.0045 78.54C80.2181 77.3301 77.4868 75.7628 74.9662 74.0396C73.3622 72.9397 72.2532 71.0883 73.9763 70.85C76.7993 70.4558 80.4473 73.1414 84.1044 75.0387C87.404 76.7527 91.3636 77.5409 95.0757 78.0084C95.5523 77.4126 96.3314 76.276 96.3314 76.276C96.3314 76.276 94.929 76.0377 90.7861 75.1212C88.9713 74.7179 87.2115 74.1954 85.5984 73.288C85.1768 73.0497 83.7011 71.5374 85.7175 70.8408C87.734 70.1442 89.6496 71.5282 92.6926 72.234C95.7448 72.9581 98.0453 72.9947 98.0728 72.9306Z" fill="black"/>
<path d="M105.048 35.0122C105.048 35.0122 104.819 27.588 100.832 21.0163C97.3945 15.3519 92.4908 14.7745 92.4908 14.7745C92.4908 14.7745 91.5193 11.209 88.1097 8.47765C84.7 5.74628 77.6883 3.46403 77.6883 3.46403C63.6465 -2.86027 54.8933 2.31832 54.8933 2.31832C54.8933 2.31832 34.0689 -2.63113 17.3966 11.5115C17.3966 11.5115 8.98251 15.471 5.54538 22.9502C3.64809 27.0931 4.46384 33.8482 4.46384 33.8482C-1.37469 40.6308 0.2293 51.3729 6.78275 56.7532C9.90824 59.3104 13.767 61.006 17.7907 61.4368C19.3672 61.6018 20.1646 61.226 20.8245 62.83C21.7961 65.1948 22.5568 67.6237 24.5091 69.3193C26.4981 71.0424 28.817 72.3806 31.2826 73.2972C36.067 75.0662 41.4748 75.2587 46.3051 73.5263C47.9091 72.9489 53.051 72.8939 53.051 72.8939C53.051 72.8939 55.7732 75.1395 65.4338 74.782C75.0944 74.4246 79.1731 70.2542 81.3821 69.4751C83.0777 68.8793 85.1583 67.5687 87.0098 67.9078C88.0638 68.1003 89.0079 68.641 89.9703 69.0993C92.665 70.3917 95.6897 71.0974 98.6593 70.8225C109.887 69.7868 111.07 56.854 109.961 47.9633C108.842 38.9901 105.048 35.0122 105.048 35.0122Z" fill="black"/>
<path d="M22.1166 52.5643C21.8875 53.0868 19.596 58.0912 17.6713 58.8978C14.3441 60.3001 9.19302 56.9638 7.2224 56.0473C6.83744 55.864 6.5808 56.3223 6.5808 56.3223C6.26001 56.7347 7.09408 57.5871 7.5157 57.8896C9.14719 59.0628 13.0609 61.7208 15.9664 62.4449C19.7152 63.3798 22.5291 62.4449 22.5291 62.4449C22.5291 62.4449 23.5556 54.9382 23.6381 54.5991C23.7206 54.26 23.6381 51.272 23.6381 51.272L22.1166 52.5643Z" fill="#DBFF00"/>
<path d="M54.866 73.7467C54.866 73.7467 52.9779 73.4534 50.0815 73.4992C47.1852 73.5451 43.1065 74.3791 43.1065 74.3791C43.1065 74.3791 45.9845 73.0685 47.2677 71.9227C48.5509 70.7679 48.8075 67.9632 48.5967 66.295C48.3767 64.5902 47.7993 63.7286 43.4364 62.8212L56.5067 62.0972C52.1255 65.0118 51.3281 71.0153 54.866 73.7467ZM94.4342 46.1672C92.1611 46.4697 89.9522 46.0389 87.9907 44.8749C87.1383 44.3616 87.0467 43.1517 87.7982 42.501C88.3023 42.0702 89.0264 42.0427 89.5855 42.4093C92.7569 44.4899 95.9832 43.1242 97.7063 42.0519C102.106 39.3113 104.287 34.4535 103.994 29.3574C104.874 30.9156 105.515 32.6387 105.671 34.4169C106.065 38.7339 102.958 42.0977 99.4845 44.27C97.8255 45.3148 96.1115 45.9473 94.4342 46.1672Z" fill="#DBFF00"/>
<path d="M104.259 50.4655C103.269 50.4655 102.197 50.2547 101.18 49.6315C100.135 48.9899 99.5482 48.1283 99.0257 47.0651C98.5949 46.1943 97.99 45.6536 96.881 45.7361C96.1019 45.8002 95.3503 46.2402 94.5712 46.1302C95.6069 44.2971 97.2659 42.8305 99.2182 42.0331C100.116 41.6665 101.125 41.4374 102.041 41.7215C102.142 42.3631 101.711 42.9589 101.464 43.5638C101.033 44.6362 101.207 45.9194 101.904 46.8359C102.38 47.4592 103.288 48.1283 104.122 48.0733C104.672 48.0366 105.057 47.5692 105.598 47.5234C107.275 47.4042 107.696 49.8606 106.047 50.2456C105.515 50.3739 104.91 50.4655 104.259 50.4655ZM88.1278 16.4793C87.4587 16.5618 86.7804 16.4884 86.4321 15.9018C85.983 15.1411 86.3588 14.1879 87.1929 13.8946C89.4934 13.088 92.0782 13.2346 94.3237 14.1329C96.2852 14.9211 97.4676 16.2593 98.2466 17.1667C99.0257 18.0741 99.5573 19.8706 99.5573 19.8706C97.605 18.1749 96.496 15.5077 88.1278 16.4793ZM79.3471 14.7103C77.3673 14.6278 79.2921 14.7103 79.2737 14.7103C76.1391 14.7103 72.3903 13.6288 71.8862 10.0541C70.9788 3.54653 80.5844 6.07625 84.104 6.56203C84.104 6.56203 81.3268 3.71151 77.6881 3.46404C75.9924 3.35405 74.2418 3.39988 72.592 3.83983C70.7772 4.32561 69.8606 5.69129 68.2108 6.36955C66.9642 6.87366 65.5436 6.68118 64.2604 6.29623C63.078 5.93877 59.2376 3.87649 59.1276 6.44288C59.1001 7.14863 59.6042 7.75357 60.2916 7.85439C63.078 8.24851 66.9276 9.49504 68.3574 12.1531C69.0174 13.3721 69.1732 14.8478 68.7882 16.1768C68.6049 16.8276 68.3391 17.6616 68.8799 18.0741C69.2923 18.3949 69.9248 18.1841 70.3005 17.8175C70.6763 17.4508 70.9146 16.9559 71.2904 16.5893C72.4636 15.4344 73.5269 16.2593 74.7734 16.6993C76.2124 17.2125 77.7339 17.46 79.2646 17.46C79.3012 17.46 76.579 17.1942 79.3654 17.46C82.1426 17.7166 81.3177 14.7928 79.3471 14.7103ZM35.2877 11.7223C33.7662 10.3474 33.0421 4.9947 37.4142 2.23584C37.4142 2.23584 35.0311 2.31833 33.0421 3.87649C31.3465 5.20551 31.0074 7.50609 31.4107 9.93499C31.5115 10.5583 31.0257 11.1265 30.3933 11.0899C28.1202 10.9707 25.8563 11.3832 23.904 12.2814C23.1616 12.6297 22.9049 13.5646 23.3449 14.2612C23.5263 14.5428 23.8043 14.7485 24.1266 14.8396C24.449 14.9308 24.7935 14.9011 25.0955 14.7561C27.2861 13.7479 30.4758 13.2071 33.033 13.8487C35.6269 14.4995 37.4508 15.2511 39.4856 18.7799C39.8339 19.3756 40.5855 19.5864 41.1537 19.2015C41.5937 18.899 41.777 18.3307 41.5937 17.8358C39.8522 13.033 37.3408 13.5738 35.2877 11.7223ZM40.9613 28.2297C40.9122 28.0542 40.8286 27.8903 40.7155 27.7475C40.6024 27.6047 40.4619 27.4859 40.3023 27.3981C40.1428 27.3102 39.9673 27.2549 39.7861 27.2356C39.605 27.2163 39.4218 27.2333 39.2473 27.2856C37.0475 27.9455 33.867 27.753 32.4464 26.3232C30.5491 21.9328 29.1101 21.1538 26.8095 20.3747C25.8929 20.063 24.9764 20.8513 25.068 21.8045C25.123 22.3453 25.4805 22.8036 26.0029 22.9594C27.6344 23.4452 29.2751 25.6358 30.1183 27.8722C30.8882 29.8978 30.9799 32.565 29.2384 34.4715C28.7893 34.9664 28.6976 35.6813 29.0917 36.2221L29.1101 36.2496C29.6142 36.9462 30.6224 37.0012 31.209 36.3688C31.8323 35.6905 32.483 34.8106 32.758 33.9215C33.0421 32.9775 32.9596 32.1342 33.7754 31.3826C34.6828 30.5394 35.5444 30.7135 36.6351 30.7135C37.7533 30.7135 38.954 30.3103 40.008 29.9345C40.723 29.7053 41.1812 28.9446 40.9613 28.2297ZM12.8594 40.6583C12.5477 40.6583 12.2453 40.6491 11.9245 40.6216C7.68076 40.255 5.4535 37.2028 4.44528 33.8574C3.43706 30.5119 4.28946 26.8731 4.28946 26.8731C5.57265 36.772 10.7329 37.7528 12.1628 37.8811C14.8666 38.1194 17.4514 36.9462 18.1571 35.1589C19.2753 32.3359 15.8474 29.5678 14.17 27.8539C13.061 26.7173 12.6485 24.7834 12.9418 23.2527C13.0885 22.4645 13.4368 21.6945 14.0876 21.1904C14.7291 20.6955 16.3423 20.2464 16.1223 21.6579C16.0582 22.0978 15.774 22.4645 15.5999 22.8677C14.3442 25.7274 18.8079 28.3763 20.0269 30.4936C21.026 32.2075 21.4659 34.279 20.7143 36.1671C19.6511 38.8618 16.434 40.6583 12.8594 40.6583Z" fill="#DBFF00"/>
<path d="M11.8791 39.9251C12.6215 40.0167 13.3823 39.8884 14.0513 39.5585C14.6929 39.2468 15.2704 38.7519 15.9761 38.6969C16.3153 38.6786 16.7369 38.8802 16.6819 39.2102C16.6636 39.3293 17.4426 39.5493 17.3418 39.6135C15.5179 40.75 10.8984 41.8774 14.088 50.0623C14.3447 50.7131 14.143 51.4463 13.5472 51.8038C12.8506 52.2254 11.9249 51.9504 11.595 51.208C10.7242 49.2924 10.3026 47.1751 10.3301 45.067C10.3576 43.0139 10.5684 41.2174 9.19355 39.5035C9.0469 39.3293 8.89108 39.0818 9.01024 38.8894C9.08356 38.7702 9.23021 38.7244 9.3677 38.6877C9.93597 38.5411 10.5409 38.3853 11.1183 38.5044C11.375 38.5594 14.2438 40.1451 14.2713 40.0901M93.6459 53.1603C91.7486 52.9312 89.7964 53.0686 87.9999 53.7469C86.4784 54.3243 85.3419 55.4884 83.5912 55.1034C82.5463 54.8743 81.6206 54.2052 80.9698 53.3528C79.595 51.5655 79.7783 49.6865 80.2916 47.6517C80.8048 45.6353 80.7499 43.298 79.8425 41.4008C79.6041 40.8966 79.2009 40.4475 78.6784 40.2642C78.1468 40.0809 77.496 40.2367 77.1844 40.7042C76.8728 41.1808 76.9919 41.8132 77.1019 42.3723C77.4594 44.0863 77.9177 45.9378 77.4044 47.6151C76.9186 49.2099 76.2495 50.6397 75.1038 51.8679C72.9316 54.2052 69.7786 55.2776 67.0564 54.5901C65.0491 54.086 63.4268 52.6837 62.336 50.5389C61.9511 48.8616 61.5478 46.6802 59.4672 46.4419C59.0456 46.396 58.5873 46.4602 58.2665 46.726C57.9457 47.001 57.799 47.4409 57.799 47.8625C57.799 48.9166 58.8073 49.7048 58.9906 50.7406C59.568 53.9119 57.4599 57.5415 54.2611 59.3013C51.7864 60.667 44.9946 61.4369 38.9086 56.3316C38.652 56.1116 38.652 55.69 38.4045 55.4609C38.2395 55.3142 38.0287 55.2226 37.8179 55.1859C36.9105 55.0118 35.9664 55.8733 36.0489 56.7899C36.1223 57.624 36.8097 58.2656 37.4238 58.8338C39.0186 60.3187 38.3037 60.9144 38.0287 61.7119C37.9646 61.9135 37.8454 62.0968 37.8271 62.3076C37.7721 62.8942 38.6703 62.7017 39.2569 62.6559C39.8435 62.6101 40.3751 62.2893 40.9434 62.1243C41.6583 61.9227 44.9305 63.1234 45.5721 63.2609C47.4327 63.6641 48.0743 63.8475 49.6783 63.8475C51.6856 63.8475 53.3904 64.8832 54.8569 63.5083C56.9466 61.556 58.569 60.282 60.4204 59.6496C61.337 59.338 62.4369 59.1821 63.2068 59.7779C63.7567 60.1995 64.0042 60.9053 64.1967 61.5652C64.5908 62.9217 64.8841 64.3057 65.4615 65.5981C66.039 66.8813 66.9555 68.082 68.2387 68.6594C68.642 68.8427 69.1003 68.9619 69.5403 68.8611C69.9802 68.7603 70.3652 68.3845 70.3743 67.9445C70.3835 67.642 70.2277 67.3671 70.0627 67.1196C69.4303 66.1114 68.6787 65.1765 68.1196 64.1316C67.5605 63.0867 67.1938 61.8677 67.423 60.7036C67.8446 58.5497 70.3377 57.9448 72.125 57.404C73.839 56.8816 75.5529 55.9008 77.3952 56.0016C78.5501 56.0658 80.9973 57.4132 81.7306 58.3114C81.8772 58.4947 81.9414 58.7239 81.9781 58.9622C82.2897 60.8961 80.869 62.6376 79.5217 64.0491C79.2834 64.2966 79.0359 64.6724 79.2375 64.9565C79.3108 65.0573 79.4208 65.1123 79.5308 65.149C80.5024 65.5248 81.6389 65.1948 82.4638 64.5624C84.2786 63.1875 84.9111 60.832 86.4601 59.2005C87.7341 57.8715 89.4481 57.0007 91.1804 56.4324C97.3764 54.3977 97.6972 59.2738 98.8062 62.0052C99.9153 64.7365 101.556 62.8484 101.574 62.0968C101.638 58.5314 99.3561 53.8386 93.6459 53.1603Z" fill="#DBFF00"/>
<path d="M35.6178 67.6326C34.6737 67.5776 34.0504 66.5969 34.4354 65.7262C35.0495 64.333 36.2044 62.949 37.6984 61.8858C39.9714 60.2726 42.2445 59.9793 44.5268 60.6301L44.9942 62.9581C43.5186 62.5365 40.8788 63.004 39.2932 64.1313C38.1475 64.9471 37.3592 65.9461 36.9743 66.7802C36.7268 67.321 36.2044 67.6693 35.6178 67.6326Z" fill="#DBFF00"/>
<path d="M94.9745 25.3883C94.8003 24.2243 93.8929 23.1428 92.7197 23.1061C92.1423 23.0878 91.5007 23.3902 91.3449 23.9493C91.2715 24.1968 91.3082 24.4718 91.3174 24.7284C91.3907 26.6349 89.86 28.4772 87.9719 28.743C85.8363 29.0454 84.2598 27.7256 82.6466 26.6257C81.1068 25.5808 79.182 24.8751 77.4039 24.371C72.6652 23.0419 68.5865 23.931 65.4794 27.8447C64.3245 29.3021 63.2246 30.8969 61.6023 31.7951C59.0542 33.2066 53.674 33.3075 52.0883 30.5394C50.0077 26.919 49.9344 15.7919 56.607 17.0568C58.6693 17.4509 60.1999 19.2382 60.3466 20.5672C60.4383 21.4104 59.9158 22.1437 59.2467 22.712C59.0002 22.9234 58.8371 23.2158 58.7867 23.5366C58.7363 23.8575 58.8019 24.1858 58.9717 24.4626C59.4117 25.1867 60.4016 25.3425 61.0432 24.8017C62.9221 23.1886 63.2154 21.4929 63.078 20.2647C62.6472 16.351 58.2385 14.1421 54.7372 14.0413C53.9673 14.0138 53.0782 13.7663 52.7849 13.0422C52.6566 12.7306 52.6749 12.3914 52.6474 12.0615C52.4641 9.72423 50.0719 7.18534 48.2021 5.97547C47.5147 5.52636 46.5889 5.81966 46.2315 6.55291C45.929 7.18534 46.1673 7.92776 46.7539 8.31272C48.5321 9.48592 49.6136 11.1907 49.9711 13.3905C50.3744 15.9202 49.8244 18.5049 48.7612 20.8055C48.2296 21.9604 47.5788 23.0786 46.8181 24.1051C46.1673 24.9942 45.2416 25.59 44.82 26.6532C44.7741 26.7724 44.7283 26.9007 44.765 27.0198C44.8291 27.249 45.1133 27.3131 45.3516 27.3223C46.0298 27.3498 46.7081 27.2031 47.313 26.919C46.9647 28.2664 47.863 29.577 48.6054 30.7503C49.3478 31.9235 49.9436 33.5183 49.1003 34.6273C49.0637 34.6732 49.0178 34.719 48.9812 34.774C47.1755 35.5347 45.4341 36.5704 44.0775 38.0003C41.7403 40.475 40.008 42.7023 36.5892 43.8022C33.5645 44.7829 30.2007 44.6637 27.2586 43.4814C26.6903 43.2522 26.1128 42.9864 25.4987 43.0047C24.8847 43.0231 24.2339 43.4539 24.2156 44.068C24.2064 44.3796 24.3622 44.6637 24.4997 44.9479C26.0579 48.11 23.1982 50.1631 21.9791 52.9128C20.8334 55.4792 20.2468 58.2931 20.2468 61.1069C20.2468 64.1774 21.3009 66.4138 25.1046 70.3184C26.8278 72.0782 29.0825 73.1231 30.9798 73.7372C31.5756 73.9297 31.9514 73.1139 31.4198 72.7748C27.506 70.2817 26.8919 68.0728 25.7004 65.7997C22.8407 60.3278 25.9662 51.9871 31.3464 47.7525C33.427 46.1211 36.3784 46.2494 38.8898 47.111C41.5845 48.0367 43.1793 50.0165 45.2049 51.8588C45.7549 52.3629 46.4606 52.9037 47.1664 52.6837C47.808 52.4912 48.1288 51.7304 48.0554 51.0705C47.9821 50.4106 47.6063 49.824 47.2489 49.2649C46.8547 48.6508 46.4606 48.0367 46.0573 47.4226C45.5349 46.616 44.9941 45.7728 44.8291 44.8195C44.6458 43.7838 45.5624 40.2 54.2698 37.982C55.7454 37.6062 57.2486 37.7711 58.7334 38.1928C60.7316 38.761 62.1614 40.2275 63.8387 41.3733C64.3062 41.694 64.8194 42.0332 65.3877 42.0515C66.1026 42.079 66.7992 41.5382 66.9459 40.8325C67.1475 39.8609 66.4143 38.9902 65.9285 38.1286C64.3153 35.2873 66.1943 31.4927 68.5682 29.6779C70.6946 28.0647 73.4902 27.4689 76.139 27.7439C80.1719 28.1564 84.1498 30.8511 85.0755 34.7923C85.2864 35.6814 85.543 36.8271 86.4504 36.9462C87.4586 37.0837 87.9994 35.7364 87.8986 34.719C87.7977 33.7016 87.4678 32.5559 88.1002 31.7493C88.3935 31.3827 88.8335 31.1719 89.2643 30.9794C90.5016 30.4386 91.794 29.9895 92.903 29.2104C94.0121 28.4405 94.9378 27.2581 95.0203 25.9108C95.0111 25.755 95.002 25.5717 94.9745 25.3883Z" fill="#DBFF00"/>
<path d="M45.3423 27.313C46.0205 27.3405 46.6988 27.1939 47.3037 26.9097C46.9554 28.2571 47.8537 29.5678 48.5961 30.741C49.1368 31.6025 49.8884 33.1332 49.0727 34.7005C49.0727 34.7005 50.3009 34.0131 52.2898 33.4357C54.2788 32.8582 56.2219 32.7299 56.2219 32.7299C54.8104 32.4366 52.7206 31.6392 52.079 30.5302C49.9984 26.9097 49.9251 15.7826 56.5977 17.0475C58.66 17.4416 60.1906 19.2289 60.3373 20.5579C60.4289 21.4012 59.9065 22.1344 59.2374 22.7027C58.9909 22.9141 58.8278 23.2065 58.7774 23.5274C58.727 23.8482 58.7926 24.1765 58.9624 24.4533C59.4024 25.1774 60.3923 25.3332 61.0339 24.7925C62.9128 23.1793 63.2061 21.4837 63.0686 20.2555C62.6379 16.3417 58.2292 14.1328 54.7279 14.032C53.958 14.0045 53.0689 13.757 52.7756 13.0329C52.6473 12.7213 52.6656 12.3822 52.6381 12.0522C52.4548 9.71495 50.0626 7.17606 48.1928 5.9662C47.5054 5.51708 46.5796 5.81038 46.2222 6.54363C45.9197 7.17606 46.158 7.91848 46.7446 8.30344C48.5227 9.47664 49.6043 11.1815 49.9618 13.3812C50.365 15.9109 49.8151 18.4957 48.7519 20.7962C48.2203 21.9511 47.5695 23.0693 46.8088 24.0959C46.158 24.9849 45.2323 25.5807 44.8107 26.6439C44.7648 26.7631 44.719 26.8914 44.7557 27.0106C44.8198 27.2397 45.104 27.3039 45.3423 27.313Z" fill="#DBFF00"/>
</svg>
