<svg width="479" height="373" viewBox="0 0 479 373" fill="none" xmlns="http://www.w3.org/2000/svg">
<path d="M229.511 296.932C229.511 296.932 236.983 328.738 278.38 352.394C304.473 367.298 359.335 382.762 387.346 362.063C419.232 338.488 426.105 315.153 427.623 306.562C429.142 297.971 424.586 274.276 424.586 274.276L372.121 255.615C372.121 255.615 285.373 276.793 283.854 276.793C282.376 276.833 229.511 296.932 229.511 296.932Z" fill="#6A009C"/>
<path d="M424.747 316.791C425.906 313.794 426.625 311.237 427.145 309.119C417.874 306.642 407.126 302.646 397.376 298.49C398.175 298.131 398.974 297.771 399.733 297.371C404.528 294.934 409.243 292.097 412.64 287.941C416.316 283.466 417.994 277.672 417.794 271.878L372.122 255.615C372.122 255.615 285.373 276.793 283.855 276.793C282.337 276.793 229.512 296.892 229.472 296.932C228.793 297.172 234.387 308.919 234.747 309.519C239.821 318.989 251.489 332.175 259.481 339.327C259.481 339.327 255.805 330.856 262.757 327.7C265.834 326.301 269.55 326.98 272.707 328.219C280.618 331.376 290.528 343.523 315.302 356.549C332.124 365.42 349.426 372.213 355.02 371.973C362.493 371.653 376.038 368.017 376.038 368.017C376.038 368.017 358.776 366.379 331.046 353.473C322.654 349.557 291.607 334.293 288.65 325.782C287.811 323.384 284.814 319.149 290.248 316.751C298.56 313.035 321.216 332.574 340.675 341.525C363.851 352.154 389.105 360.665 389.105 360.665C391.822 358.587 394.379 356.509 396.777 354.432C383.87 351.115 371.243 346.56 359.056 341.245C346.909 335.971 335.001 329.138 324.013 321.626C317.02 316.831 312.185 308.759 319.697 307.721C332.005 306.002 347.908 317.71 363.851 325.981C378.236 333.454 395.498 336.89 411.681 338.928C413.759 336.331 417.155 331.376 417.155 331.376C417.155 331.376 411.042 330.337 392.981 326.341C385.069 324.583 377.397 322.305 370.364 318.349C368.526 317.31 362.093 310.717 370.884 307.681C379.675 304.644 388.026 310.677 401.292 313.754C414.598 316.911 424.627 317.071 424.747 316.791Z" fill="#6A009C"/>
<path d="M455.153 151.486C455.153 151.486 454.154 119.12 436.773 90.4698C421.788 65.7758 400.411 63.2584 400.411 63.2584C400.411 63.2584 396.175 47.7147 381.311 35.8072C366.446 23.8997 335.879 13.9502 335.879 13.9502C274.663 -13.6209 236.503 8.9554 236.503 8.9554C236.503 8.9554 145.718 -12.622 73.0344 49.0333C73.0344 49.0333 36.3529 66.2952 21.3687 98.901C13.0973 116.962 16.6536 146.411 16.6536 146.411C-8.79968 175.98 -1.80702 222.811 26.763 246.266C40.3887 257.415 57.211 264.807 74.7526 266.685C81.6254 267.404 85.1018 265.766 87.9787 272.759C92.2143 283.068 95.5308 293.657 104.042 301.049C112.713 308.561 122.822 314.395 133.571 318.391C154.429 326.103 178.004 326.942 199.062 319.39C206.055 316.872 228.471 316.632 228.471 316.632C228.471 316.632 240.339 326.422 282.455 324.864C324.57 323.305 342.352 305.125 351.982 301.728C359.374 299.131 368.444 293.417 376.516 294.895C381.111 295.734 385.227 298.092 389.422 300.09C401.17 305.724 414.356 308.801 427.303 307.602C476.251 303.087 481.406 246.706 476.571 207.947C471.696 168.828 455.153 151.486 455.153 151.486Z" fill="#C144FC"/>
<path d="M93.6138 228.006C92.6148 230.283 82.6253 252.1 74.2341 255.617C59.7293 261.73 37.2729 247.186 28.6819 243.19C27.0037 242.391 25.8848 244.388 25.8848 244.388C24.4863 246.187 28.1225 249.903 29.9606 251.221C37.0731 256.336 54.1352 267.924 66.8019 271.08C83.1447 275.156 95.4119 271.08 95.4119 271.08C95.4119 271.08 99.8872 238.355 100.247 236.876C100.606 235.398 100.247 222.372 100.247 222.372L93.6138 228.006Z" fill="#DBFF00"/>
<path d="M236.383 320.349C236.383 320.349 228.152 319.071 215.525 319.271C202.899 319.47 185.117 323.107 185.117 323.107C185.117 323.107 197.664 317.393 203.258 312.398C208.852 307.363 209.971 295.136 209.052 287.863C208.093 280.431 205.576 276.675 186.556 272.719L243.536 269.563C224.436 282.269 220.96 308.442 236.383 320.349ZM408.882 200.116C398.973 201.434 389.343 199.556 380.792 194.481C377.076 192.244 376.676 186.969 379.953 184.132C382.15 182.254 385.307 182.134 387.745 183.733C401.57 192.803 415.635 186.85 423.147 182.174C442.327 170.227 451.837 149.049 450.559 126.833C454.395 133.625 457.192 141.138 457.871 148.889C459.589 167.71 446.043 182.374 430.899 191.844C423.667 196.4 416.195 199.157 408.882 200.116Z" fill="#6A009C"/>
<path d="M451.717 218.856C447.401 218.856 442.726 217.937 438.291 215.22C433.735 212.423 431.178 208.667 428.901 204.032C427.023 200.236 424.385 197.878 419.55 198.238C416.154 198.518 412.877 200.436 409.481 199.956C413.996 191.964 421.229 185.571 429.74 182.095C433.656 180.496 438.051 179.498 442.047 180.736C442.486 183.533 440.608 186.131 439.529 188.768C437.651 193.443 438.411 199.037 441.447 203.033C443.525 205.75 447.481 208.667 451.117 208.427C453.515 208.267 455.193 206.229 457.55 206.03C464.863 205.51 466.701 216.219 459.508 217.897C457.191 218.457 454.554 218.856 451.717 218.856ZM381.39 70.6917C378.473 71.0514 375.517 70.7317 373.998 68.1744C372.04 64.8579 373.678 60.7022 377.315 59.4236C387.344 55.9073 398.612 56.5466 408.402 60.4625C416.953 63.8989 422.108 69.7327 425.504 73.6886C428.901 77.6444 431.218 85.4762 431.218 85.4762C422.707 78.084 417.872 66.4562 381.39 70.6917ZM343.111 62.9798C334.48 62.6202 342.871 62.9798 342.791 62.9798C329.125 62.9798 312.782 58.2648 310.585 42.6811C306.629 14.3109 348.505 25.3393 363.849 27.4571C363.849 27.4571 351.742 15.0302 335.878 13.9513C328.486 13.4718 320.854 13.6716 313.661 15.5896C305.75 17.7074 301.754 23.6611 294.562 26.618C289.127 28.8157 282.934 27.9766 277.34 26.2983C272.185 24.74 255.443 15.7494 254.963 26.9377C254.843 30.0144 257.041 32.6517 260.038 33.0912C272.185 34.8094 288.967 40.2437 295.201 51.8315C298.078 57.146 298.757 63.5792 297.079 69.3731C296.28 72.2101 295.121 75.8463 297.478 77.6444C299.277 79.043 302.034 78.1239 303.672 76.5256C305.31 74.9273 306.349 72.7696 307.987 71.1712C313.102 66.1365 317.737 69.7327 323.172 71.6507C329.445 73.8884 336.078 74.9673 342.751 74.9673C342.911 74.9673 331.043 73.8085 343.191 74.9673C355.298 76.0861 351.702 63.3395 343.111 62.9798ZM151.032 49.9535C144.399 43.9598 141.242 20.6243 160.302 8.59692C160.302 8.59692 149.913 8.95654 141.242 15.7494C133.85 21.5433 132.372 31.5728 134.13 42.1617C134.569 44.8788 132.452 47.3562 129.695 47.1964C119.785 46.6769 109.915 48.4751 101.404 52.3909C98.1677 53.9094 97.0489 57.9851 98.9669 61.0219C99.7577 62.2496 100.97 63.1463 102.375 63.5436C103.78 63.9409 105.282 63.8115 106.599 63.1796C116.149 58.7842 130.054 56.4267 141.203 59.2238C152.511 62.0608 160.462 65.3374 169.333 80.7212C170.851 83.3185 174.128 84.2375 176.605 82.5593C178.523 81.2407 179.323 78.7633 178.523 76.6055C170.931 55.6675 159.983 58.025 151.032 49.9535ZM175.766 121.918C175.552 121.153 175.188 120.439 174.695 119.816C174.202 119.194 173.589 118.676 172.894 118.293C172.198 117.909 171.433 117.669 170.643 117.585C169.853 117.5 169.055 117.574 168.294 117.802C158.704 120.679 144.839 119.84 138.645 113.607C130.374 94.4668 124.1 91.0704 114.071 87.6739C110.075 86.3153 106.079 89.7517 106.479 93.9074C106.719 96.2649 108.277 98.2628 110.555 98.9421C117.667 101.06 124.82 110.61 128.496 120.36C131.852 129.19 132.252 140.818 124.66 149.129C122.702 151.287 122.302 154.404 124.021 156.761L124.1 156.881C126.298 159.918 130.694 160.158 133.251 157.401C135.968 154.444 138.805 150.608 140.004 146.732C141.242 142.616 140.883 138.94 144.439 135.664C148.395 131.987 152.151 132.747 156.906 132.747C161.781 132.747 167.015 130.988 171.611 129.35C174.727 128.351 176.725 125.035 175.766 121.918ZM53.2548 176.101C51.8962 176.101 50.5776 176.061 49.1791 175.941C30.6785 174.343 20.9687 161.037 16.5733 146.452C12.1779 131.868 15.894 116.004 15.894 116.004C21.4882 159.159 43.9846 163.434 50.218 163.994C62.0056 165.033 73.2738 159.918 76.3506 152.126C81.2255 139.819 66.2812 127.752 58.9688 120.28C54.1339 115.325 52.3358 106.894 53.6144 100.221C54.2538 96.7844 55.7722 93.4279 58.6092 91.2302C61.4063 89.0724 68.4389 87.1145 67.4799 93.268C67.2002 95.186 65.9615 96.7843 65.2023 98.5425C59.728 111.009 79.1876 122.557 84.502 131.788C88.8575 139.26 90.7754 148.29 87.4989 156.522C82.8637 168.269 68.8385 176.101 53.2548 176.101Z" fill="#6A009C"/>
<path d="M48.9791 172.904C52.2157 173.303 55.5323 172.744 58.4492 171.305C61.2463 169.947 63.7636 167.789 66.8404 167.549C68.3188 167.469 70.1569 168.348 69.9172 169.787C69.8372 170.306 73.2337 171.265 72.7941 171.545C64.8425 176.5 44.7036 181.415 58.609 217.097C59.7279 219.934 58.8488 223.131 56.2515 224.689C53.2147 226.527 49.1789 225.329 47.7404 222.092C43.9444 213.741 42.1064 204.51 42.2262 195.32C42.3461 186.369 43.2651 178.538 37.2714 171.065C36.6321 170.306 35.9528 169.227 36.4723 168.388C36.7919 167.869 37.4313 167.669 38.0306 167.509C40.508 166.87 43.1453 166.191 45.6626 166.71C46.7815 166.95 59.2883 173.863 59.4082 173.623M405.445 230.603C397.174 229.604 388.663 230.203 380.831 233.16C374.198 235.678 369.243 240.752 361.611 239.074C357.056 238.075 353.02 235.158 350.183 231.442C344.189 223.65 344.988 215.459 347.226 206.588C349.464 197.797 349.224 187.608 345.268 179.337C344.229 177.139 342.471 175.181 340.193 174.382C337.876 173.583 335.039 174.262 333.68 176.3C332.322 178.378 332.841 181.135 333.321 183.572C334.879 191.045 336.877 199.116 334.639 206.428C332.521 213.381 329.605 219.615 324.61 224.969C315.14 235.158 301.394 239.833 289.527 236.836C280.776 234.639 273.703 228.525 268.948 219.175C267.27 211.863 265.512 202.353 256.441 201.314C254.603 201.114 252.605 201.394 251.207 202.552C249.808 203.751 249.169 205.669 249.169 207.507C249.169 212.102 253.564 215.539 254.364 220.054C256.881 233.88 247.691 249.703 233.745 257.375C222.957 263.329 193.348 266.685 166.815 244.428C165.697 243.469 165.697 241.631 164.618 240.632C163.899 239.993 162.979 239.594 162.06 239.434C158.105 238.675 153.989 242.431 154.349 246.426C154.668 250.063 157.665 252.86 160.342 255.337C167.295 261.81 164.178 264.408 162.979 267.884C162.7 268.763 162.18 269.562 162.1 270.481C161.861 273.038 165.777 272.199 168.334 272C170.891 271.8 173.209 270.401 175.686 269.682C178.803 268.803 193.068 274.037 195.865 274.637C203.976 276.395 206.773 277.194 213.766 277.194C222.517 277.194 229.949 281.709 236.342 275.716C245.453 267.205 252.525 261.65 260.597 258.893C264.593 257.535 269.388 256.855 272.744 259.453C275.142 261.291 276.221 264.368 277.06 267.245C278.778 273.158 280.057 279.192 282.574 284.826C285.091 290.42 289.087 295.655 294.681 298.172C296.439 298.971 298.437 299.491 300.355 299.051C302.273 298.612 303.951 296.973 303.991 295.055C304.031 293.737 303.352 292.538 302.633 291.459C299.876 287.064 296.599 282.988 294.162 278.433C291.724 273.878 290.126 268.563 291.125 263.488C292.963 254.098 303.832 251.461 311.623 249.104C319.096 246.826 326.568 242.55 334.599 242.99C339.634 243.27 350.303 249.144 353.499 253.059C354.139 253.859 354.419 254.858 354.578 255.896C355.937 264.328 349.743 271.92 343.87 278.073C342.831 279.152 341.752 280.79 342.631 282.029C342.951 282.469 343.43 282.708 343.91 282.868C348.145 284.506 353.1 283.068 356.696 280.311C364.608 274.317 367.365 264.048 374.118 256.935C379.672 251.141 387.144 247.345 394.696 244.868C421.708 235.997 423.106 257.255 427.941 269.163C432.776 281.07 439.929 272.839 440.009 269.562C440.288 254.018 430.339 233.56 405.445 230.603Z" fill="#6A009C"/>
<path d="M152.47 293.699C148.354 293.459 145.637 289.184 147.316 285.388C149.993 279.314 155.027 273.281 161.541 268.645C171.45 261.613 181.36 260.334 191.309 263.171L193.347 273.32C186.914 271.482 175.406 273.52 168.493 278.435C163.499 281.991 160.062 286.347 158.384 289.983C157.305 292.34 155.027 293.859 152.47 293.699Z" fill="#6A009C"/>
<path d="M411.239 109.531C410.479 104.456 406.524 99.7413 401.409 99.5815C398.892 99.5016 396.095 100.82 395.415 103.258C395.096 104.336 395.255 105.535 395.295 106.654C395.615 114.965 388.942 122.997 380.711 124.156C371.4 125.474 364.528 119.72 357.495 114.925C350.782 110.37 342.391 107.293 334.639 105.096C313.981 99.3018 296.199 103.178 282.654 120.24C277.619 126.593 272.824 133.546 265.751 137.462C254.643 143.615 231.188 144.055 224.275 131.987C215.204 116.204 214.885 67.6949 243.974 73.2092C252.965 74.9273 259.638 82.7192 260.277 88.5131C260.677 92.1892 258.399 95.3859 255.482 97.8633C254.407 98.7851 253.696 100.06 253.477 101.458C253.257 102.857 253.543 104.288 254.283 105.495C256.201 108.652 260.517 109.331 263.314 106.974C271.505 99.9411 272.784 92.5489 272.185 87.1945C270.307 70.1324 251.087 60.5025 235.823 60.063C232.466 59.9431 228.59 58.8642 227.312 55.7075C226.752 54.349 226.832 52.8705 226.712 51.432C225.913 41.2427 215.484 30.1743 207.333 24.8999C204.336 22.9419 200.3 24.2206 198.742 27.4172C197.423 30.1743 198.462 33.4109 201.019 35.0892C208.771 40.2038 213.486 47.636 215.045 57.2259C216.803 68.2544 214.405 79.5225 209.77 89.552C207.452 94.5867 204.615 99.4616 201.299 103.937C198.462 107.813 194.426 110.41 192.588 115.045C192.388 115.565 192.189 116.124 192.348 116.644C192.628 117.643 193.867 117.922 194.906 117.962C197.863 118.082 200.819 117.443 203.457 116.204C201.938 122.078 205.854 127.792 209.091 132.906C212.327 138.021 214.925 144.974 211.249 149.809C211.089 150.009 210.889 150.208 210.729 150.448C202.857 153.765 195.265 158.28 189.351 164.513C179.162 175.302 171.61 185.012 156.706 189.807C143.52 194.082 128.855 193.563 116.028 188.408C113.551 187.409 111.034 186.251 108.357 186.33C105.679 186.41 102.842 188.288 102.762 190.966C102.722 192.324 103.402 193.563 104.001 194.802C110.794 208.587 98.327 217.538 93.0126 229.525C88.0179 240.713 85.4605 252.98 85.4605 265.248C85.4605 278.634 90.0557 288.383 106.638 305.405C114.15 313.077 123.98 317.633 132.251 320.31C134.849 321.149 136.487 317.593 134.169 316.114C117.107 305.246 114.43 295.616 109.236 285.706C96.7687 261.851 110.394 225.489 133.85 207.029C142.92 199.916 155.787 200.476 166.735 204.232C178.483 208.267 185.436 216.898 194.266 224.93C196.664 227.128 199.741 229.485 202.817 228.526C205.614 227.687 207.013 224.37 206.693 221.493C206.374 218.617 204.735 216.059 203.177 213.622C201.459 210.945 199.741 208.267 197.982 205.59C195.705 202.074 193.347 198.398 192.628 194.242C191.829 189.727 195.825 174.103 233.785 164.433C240.218 162.795 246.771 163.514 253.244 165.352C261.955 167.83 268.189 174.223 275.501 179.218C277.539 180.616 279.777 182.095 282.254 182.175C285.371 182.295 288.408 179.937 289.047 176.86C289.926 172.625 286.729 168.829 284.611 165.073C277.579 152.686 285.77 136.143 296.119 128.231C305.39 121.199 317.577 118.602 329.125 119.8C346.706 121.598 364.048 133.346 368.084 150.528C369.003 154.404 370.122 159.399 374.078 159.918C378.473 160.518 380.831 154.644 380.391 150.208C379.951 145.773 378.513 140.778 381.27 137.262C382.549 135.664 384.467 134.745 386.345 133.905C391.739 131.548 397.373 129.59 402.208 126.194C407.043 122.837 411.079 117.682 411.438 111.809C411.398 111.129 411.358 110.33 411.239 109.531Z" fill="#DBFF00"/>
<path d="M194.866 117.923C197.823 118.043 200.779 117.403 203.417 116.165C201.898 122.038 205.814 127.752 209.051 132.867C211.408 136.623 214.685 143.296 211.129 150.129C211.129 150.129 216.483 147.132 225.154 144.615C233.825 142.097 242.296 141.538 242.296 141.538C236.142 140.259 227.032 136.783 224.235 131.948C215.164 116.165 214.845 67.6555 243.934 73.1697C252.925 74.8879 259.598 82.6797 260.237 88.4737C260.637 92.1498 258.359 95.3465 255.442 97.8238C254.367 98.7457 253.656 100.02 253.437 101.419C253.217 102.818 253.503 104.249 254.243 105.456C256.161 108.613 260.477 109.292 263.274 106.934C271.465 99.9017 272.744 92.5094 272.145 87.1551C270.266 70.093 251.047 60.4631 235.783 60.0235C232.426 59.9037 228.55 58.8248 227.272 55.6681C226.712 54.3095 226.792 52.8311 226.672 51.3926C225.873 41.2033 215.444 30.1349 207.293 24.8604C204.296 22.9025 200.26 24.1811 198.702 27.3778C197.383 30.1349 198.422 33.3715 200.979 35.0497C208.731 40.1644 213.446 47.5966 215.005 57.1865C216.763 68.2149 214.365 79.4831 209.73 89.5126C207.412 94.5473 204.575 99.4222 201.259 103.897C198.422 107.773 194.386 110.371 192.548 115.006C192.348 115.525 192.148 116.085 192.308 116.604C192.588 117.603 193.827 117.883 194.866 117.923Z" fill="#DBFF00"/>
</svg>
