<svg width="315" height="73" viewBox="0 0 315 73" fill="none" xmlns="http://www.w3.org/2000/svg">
<path d="M12.4822 4.69336C6.0426 4.69336 0.857422 9.87854 0.857422 16.3182V56.7334C0.857422 63.1731 6.0426 68.3582 12.4822 68.3582H34.3869V43.4692H27.8056V34.5084H34.3869V26.8527C34.3869 20.838 38.2755 15.3155 47.2333 15.3155C50.8602 15.3155 53.5421 15.6636 53.5421 15.6636L53.3312 24.0316C53.3312 24.0316 50.5959 24.0058 47.6113 24.0058C44.381 24.0058 43.863 25.4941 43.863 27.965V34.5085H53.5878L53.1641 43.4693H43.863V68.3583H52.8974C59.3371 68.3583 64.5222 63.1731 64.5222 56.7335V16.3182C64.5222 9.8786 59.3371 4.69342 52.8974 4.69342H12.4822L12.4822 4.69336Z" fill="#DBFF00"/>
<path d="M112.271 28.8799C110.746 28.8805 109.255 29.3294 107.988 30.17C106.72 31.0105 105.732 32.205 105.149 33.6022C104.566 34.9995 104.414 36.5369 104.712 38.02C105.009 39.503 105.744 40.8653 106.822 41.9344C107.901 43.0035 109.275 43.7314 110.771 44.0262C112.266 44.3211 113.816 44.1695 115.225 43.5906C116.634 43.0118 117.838 42.0317 118.685 40.7743C119.532 39.5169 119.985 38.0387 119.985 36.5264C119.983 34.4984 119.17 32.5539 117.723 31.1202C116.277 29.6864 114.316 28.8807 112.271 28.8799ZM130.299 23.0024C129.906 22.0159 129.314 21.1199 128.557 20.37C127.801 19.6201 126.898 19.0322 125.903 18.643C122.867 17.4546 115.639 17.7212 112.271 17.7212C108.903 17.7212 101.682 17.4445 98.6375 18.643C97.6427 19.0322 96.7392 19.6201 95.983 20.37C95.2268 21.1199 94.634 22.0159 94.2415 23.0024C93.0445 26.0128 93.312 33.1877 93.312 36.525C93.312 39.8623 93.0445 47.0286 94.2473 50.0491C94.6398 51.0356 95.2326 51.9316 95.9888 52.6815C96.745 53.4314 97.6485 54.0192 98.6433 54.4085C101.679 55.5969 108.907 55.3302 112.277 55.3302C115.646 55.3302 122.864 55.6069 125.909 54.4085C126.903 54.0192 127.807 53.4314 128.563 52.6815C129.319 51.9316 129.912 51.0356 130.305 50.0491C131.512 47.0386 131.234 39.8637 131.234 36.5264C131.234 33.1891 131.512 26.0243 130.305 23.0038L130.299 23.0024ZM112.271 48.2815C109.926 48.2815 107.635 47.5921 105.685 46.3004C103.736 45.0088 102.217 43.1729 101.319 41.0249C100.422 38.8769 100.187 36.5134 100.645 34.2331C101.102 31.9529 102.231 29.8583 103.889 28.2144C105.547 26.5704 107.659 25.4508 109.958 24.9972C112.258 24.5437 114.641 24.7765 116.807 25.6662C118.973 26.5559 120.824 28.0626 122.127 29.9957C123.43 31.9288 124.125 34.2015 124.125 36.5264C124.127 38.0707 123.821 39.6001 123.226 41.0271C122.631 42.4542 121.758 43.7508 120.657 44.8427C119.556 45.9347 118.248 46.8005 116.809 47.3905C115.37 47.9806 113.828 48.2834 112.271 48.2815ZM124.613 27.022C124.066 27.0223 123.531 26.8616 123.076 26.5603C122.621 26.259 122.266 25.8306 122.056 25.3292C121.846 24.8279 121.791 24.2762 121.898 23.7438C122.005 23.2115 122.268 22.7224 122.655 22.3386C123.042 21.9547 123.535 21.6932 124.072 21.5873C124.608 21.4813 125.165 21.5355 125.67 21.7432C126.176 21.9508 126.608 22.3025 126.912 22.7537C127.216 23.205 127.379 23.7355 127.379 24.2782C127.38 24.6386 127.31 24.9958 127.172 25.3292C127.034 25.6627 126.831 25.9658 126.575 26.2213C126.318 26.4767 126.014 26.6794 125.678 26.8178C125.342 26.9562 124.983 27.0276 124.619 27.0278L124.613 27.022ZM137.713 4.41504H86.8285C84.9882 4.41504 83.2233 5.14 81.922 6.43044C80.6207 7.72088 79.8896 9.47109 79.8896 11.2961V61.7568C79.8896 63.5818 80.6207 65.332 81.922 66.6224C83.2233 67.9129 84.9882 68.6378 86.8285 68.6378H137.713C139.554 68.6378 141.319 67.9129 142.62 66.6224C143.921 65.332 144.652 63.5818 144.652 61.7568V11.2961C144.652 9.47109 143.921 7.72088 142.62 6.43044C141.319 5.14 139.554 4.41504 137.713 4.41504ZM135.238 45.9878C135.052 49.662 134.206 52.9176 131.502 55.5926C128.797 58.2676 125.517 59.1234 121.816 59.2983C117.998 59.5119 106.552 59.5119 102.734 59.2983C99.0293 59.1134 95.7579 58.2733 93.0489 55.5926C90.3398 52.9119 89.4884 49.6548 89.312 45.9878C89.0966 42.2004 89.0966 30.8482 89.312 27.065C89.4985 23.3909 90.334 20.1353 93.0489 17.4603C95.7637 14.7853 99.0437 13.9395 102.734 13.7646C106.552 13.551 117.998 13.551 121.816 13.7646C125.521 13.9495 128.803 14.7896 131.502 17.4703C134.201 20.1511 135.062 23.4081 135.238 27.0822C135.454 30.8553 135.454 42.1975 135.238 45.9878Z" fill="#DBFF00"/>
<path d="M290.351 53.1415L296.293 25.1253C296.536 23.9394 296.395 23.0904 295.869 22.5783C295.343 22.0662 294.649 21.9719 293.787 22.2953L258.858 35.7577C258.076 36.0542 257.544 36.3911 257.261 36.7684C256.978 37.1457 256.944 37.5028 257.16 37.8397C257.375 38.1766 257.806 38.4394 258.453 38.6281L267.388 41.4176L288.127 28.3595C288.693 27.9821 289.124 27.9013 289.421 28.1169C289.609 28.2516 289.556 28.4538 289.259 28.7233L272.482 43.8836L271.835 53.1011C272.455 53.1011 273.061 52.8047 273.654 52.2117L278.02 48.0072L287.076 54.6778C288.801 55.6481 289.892 55.136 290.351 53.1415ZM314.728 36.5258C314.728 41.431 313.772 46.1206 311.858 50.5946C309.944 55.0686 307.371 58.9227 304.136 62.1569C300.902 65.3911 297.048 67.965 292.574 69.8786C288.1 71.7921 283.411 72.7489 278.505 72.7489C273.6 72.7489 268.911 71.7921 264.437 69.8786C259.963 67.965 256.108 65.3911 252.874 62.1569C249.64 58.9227 247.066 55.0686 245.153 50.5946C243.239 46.1206 242.282 41.431 242.282 36.5258C242.282 31.6206 243.239 26.931 245.153 22.457C247.066 17.9831 249.64 14.129 252.874 10.8948C256.108 7.66055 259.963 5.08666 264.437 3.17309C268.911 1.25952 273.6 0.302734 278.505 0.302734C283.411 0.302734 288.1 1.25952 292.574 3.17309C297.048 5.08666 300.902 7.66055 304.136 10.8948C307.371 14.129 309.944 17.9831 311.858 22.457C313.772 26.931 314.728 31.6206 314.728 36.5258Z" fill="#DBFF00"/>
<path d="M210.658 0.97168H187.927C167.166 0.97168 162.228 5.7111 162.228 25.6003V47.4166C162.228 67.3378 167.129 72.0808 187.89 72.0808H210.621C231.378 72.0808 236.32 67.3769 236.32 47.4521V25.6359C236.32 5.7111 231.419 0.97168 210.658 0.97168ZM222.043 51.708H216.637C214.593 51.708 213.978 50.1187 210.31 46.5988C207.109 43.6371 205.757 43.2674 204.946 43.2674C203.827 43.2674 203.519 43.5625 203.519 45.0451V49.7098C203.519 50.972 203.093 51.7116 199.659 51.7116C196.326 51.4966 193.094 50.5248 190.229 48.8762C187.364 47.2276 184.949 44.9494 183.181 42.2292C178.984 37.216 176.064 31.3322 174.653 25.0457C174.653 24.267 174.96 23.563 176.505 23.563H181.907C183.296 23.563 183.796 24.1568 184.34 25.5256C186.963 32.9352 191.439 39.3777 193.254 39.3777C193.95 39.3777 194.254 39.0826 194.254 37.4151V29.7851C194.024 26.3043 192.098 26.0092 192.098 24.7506C192.123 24.4186 192.281 24.1089 192.54 23.8872C192.799 23.6655 193.137 23.5492 193.484 23.563H201.975C203.134 23.563 203.519 24.1177 203.519 25.451V35.7476C203.519 36.8604 204.02 37.2302 204.368 37.2302C205.064 37.2302 205.601 36.8604 206.876 35.6374C209.613 32.4337 211.849 28.8645 213.514 25.0421C213.685 24.583 214.007 24.1899 214.431 23.9228C214.856 23.6558 215.36 23.5294 215.867 23.563H221.272C222.891 23.563 223.235 24.3417 222.891 25.451C220.926 29.6764 218.494 33.6874 215.637 37.4151C215.056 38.2684 214.822 38.7128 215.637 39.7119C216.174 40.4905 218.067 42.0087 219.342 43.4522C221.194 45.2251 222.732 47.2764 223.895 49.525C224.358 50.9685 223.584 51.7116 222.043 51.7116V51.708Z" fill="#DBFF00"/>
</svg>
