<svg width="412" height="374" viewBox="0 0 412 374" fill="none" xmlns="http://www.w3.org/2000/svg">
<path d="M131.048 37.4276C164.234 7.46636 198.897 1.68575 231.709 10.6433C264.875 19.6976 296.618 43.9733 322.831 75.0244C348.985 106.004 379.879 159.264 395.602 212.344C411.477 265.939 411.108 316.352 379.309 345.061C363.554 359.285 337.002 366.408 303.899 367.388C271.042 368.36 232.833 363.25 194.919 354.188C157.03 345.132 119.67 332.185 88.5458 317.63C57.2299 302.986 32.902 287.023 20.4221 272.24C8.40875 258.01 4.59785 240.655 6.94426 221.102C9.31186 201.372 17.9505 179.618 30.637 157.426C55.9979 113.064 96.6339 68.4977 131.048 37.4276Z" stroke="#C144FC" stroke-width="12"/>
</svg>
