<svg width="282" height="272" viewBox="0 0 282 272" fill="none" xmlns="http://www.w3.org/2000/svg">
<path d="M33.7777 147.125L21.2239 142.984L22.1082 141.08L35.8888 145.695L33.7777 147.125ZM21.8815 155.186L10.1017 137.801L11.8899 136.589L23.6696 153.974L21.8815 155.186ZM17.7214 146.372L16.6275 144.758L22.0665 141.072L23.1604 142.687L17.7214 146.372ZM22.9808 142.047L21.0901 142.894L21.7496 129.908L23.7365 128.562L22.9808 142.047Z" fill="white"/>
<path d="M46.041 140.34C44.701 141.058 43.3328 141.405 41.9363 141.381C40.548 141.331 39.262 140.942 38.0784 140.215C36.8853 139.47 35.9206 138.409 35.1841 137.034C34.4381 135.641 34.0904 134.251 34.1409 132.863C34.1915 131.474 34.5851 130.197 35.322 129.031C36.0588 127.865 37.1059 126.919 38.4635 126.191C39.8387 125.455 41.2157 125.103 42.5946 125.136C43.9911 125.16 45.2724 125.54 46.4384 126.276C47.622 127.004 48.5868 128.064 49.3327 129.457C50.0692 130.832 50.4169 132.223 50.3758 133.628C50.3429 135.007 49.954 136.293 49.209 137.486C48.4545 138.662 47.3985 139.613 46.041 140.34ZM45.1487 138.674C46.1536 138.136 46.926 137.439 47.4656 136.582C47.9959 135.708 48.2642 134.748 48.2707 133.701C48.2853 132.627 48.0046 131.552 47.4286 130.477C46.8432 129.383 46.1041 128.554 45.2113 127.989C44.3362 127.414 43.3928 127.114 42.381 127.088C41.3597 127.045 40.3554 127.288 39.3681 127.817C38.3808 128.346 37.622 129.047 37.0917 129.921C36.552 130.777 36.2702 131.734 36.2461 132.79C36.2221 133.847 36.5027 134.921 37.0882 136.014C37.6642 137.09 38.4032 137.919 39.3054 138.502C40.1982 139.068 41.1552 139.372 42.1764 139.415C43.1882 139.44 44.179 139.193 45.1487 138.674Z" fill="white"/>
<path d="M58.8799 133.671L53.0771 119.029L55.0852 118.233L66.1772 126.842L65.3405 127.173L67.6355 113.259L69.4762 112.529L75.279 127.172L73.4662 127.89L68.5587 115.507L68.9876 115.531L66.8183 128.459L65.9258 128.813L55.389 120.791L55.7742 120.541L60.6927 132.952L58.8799 133.671Z" fill="white"/>
<path d="M91.9573 122.344L91.0355 118.988L90.7977 118.462L89.256 112.85C88.9011 111.558 88.2618 110.665 87.3383 110.172C86.434 109.674 85.2683 109.621 83.8411 110.013C82.8576 110.283 81.9672 110.704 81.1702 111.276C80.3731 111.847 79.7402 112.488 79.2714 113.197L77.9245 111.918C78.5158 111.051 79.3037 110.295 80.2884 109.651C81.2677 108.988 82.3552 108.492 83.5509 108.164C85.5181 107.623 87.1671 107.699 88.498 108.391C89.8428 109.059 90.7881 110.386 91.3338 112.372L93.9244 121.803L91.9573 122.344ZM86.761 123.927C85.6232 124.239 84.5796 124.329 83.6304 124.195C82.6952 124.037 81.9157 123.692 81.292 123.158C80.663 122.605 80.2293 121.894 79.9909 121.026C79.7737 120.236 79.7609 119.472 79.9525 118.735C80.1581 117.973 80.6322 117.283 81.3748 116.664C82.1314 116.02 83.2329 115.5 84.6793 115.103L89.9153 113.664L90.3365 115.198L85.1583 116.62C83.6926 117.023 82.742 117.564 82.3065 118.243C81.8903 118.918 81.7881 119.641 82 120.412C82.2384 121.28 82.7666 121.882 83.5847 122.217C84.4027 122.552 85.4192 122.553 86.6342 122.219C87.7913 121.901 88.713 121.368 89.3993 120.62C90.0995 119.846 90.5047 118.905 90.6149 117.797L91.4672 119.087C91.357 120.196 90.9018 121.182 90.1018 122.044C89.321 122.902 88.2074 123.529 86.761 123.927Z" fill="white"/>
<path d="M100.535 120.295L97.8497 104.775L99.9485 104.412L101.135 111.27L110.92 109.577L109.733 102.719L111.832 102.356L114.517 117.875L112.418 118.239L111.232 111.38L101.447 113.073L102.634 119.931L100.535 120.295Z" fill="white"/>
<path d="M132.976 115.283L132.146 102.44L124.572 102.93L124.619 106.444C124.647 107.504 124.644 108.547 124.61 109.571C124.596 110.594 124.507 111.542 124.343 112.414C124.198 113.265 123.953 113.972 123.609 114.536C123.263 115.079 122.793 115.41 122.2 115.529L120.049 115.277C120.669 115.257 121.164 115.005 121.533 114.52C121.902 114.015 122.169 113.346 122.336 112.514C122.502 111.681 122.602 110.743 122.635 109.699C122.666 108.634 122.676 107.551 122.665 106.45L122.536 101.197L134.152 100.446L135.102 115.146L132.976 115.283ZM119.756 120.978L119.39 115.32L137.503 114.149L137.868 119.807L135.863 119.937L135.617 116.135L121.516 117.046L121.762 120.848L119.756 120.978Z" fill="white"/>
<path d="M152.716 116.369L152.821 112.89L152.749 112.318L152.926 106.5C152.966 105.161 152.618 104.12 151.88 103.377C151.162 102.635 150.064 102.242 148.584 102.197C147.565 102.165 146.59 102.306 145.66 102.618C144.73 102.93 143.937 103.356 143.28 103.896L142.369 102.278C143.189 101.622 144.165 101.132 145.295 100.806C146.426 100.46 147.612 100.306 148.851 100.344C150.89 100.406 152.444 100.963 153.512 102.016C154.601 103.05 155.115 104.596 155.052 106.655L154.755 116.431L152.716 116.369ZM147.283 116.353C146.104 116.318 145.08 116.096 144.212 115.69C143.365 115.264 142.722 114.704 142.282 114.01C141.844 113.297 141.638 112.49 141.666 111.591C141.691 110.771 141.903 110.037 142.303 109.389C142.723 108.721 143.38 108.201 144.271 107.828C145.184 107.436 146.389 107.262 147.889 107.308L153.316 107.473L153.268 109.062L147.9 108.899C146.381 108.853 145.313 109.09 144.697 109.612C144.101 110.134 143.791 110.795 143.767 111.594C143.739 112.494 144.067 113.224 144.75 113.785C145.434 114.346 146.405 114.646 147.664 114.684C148.864 114.721 149.902 114.482 150.778 113.969C151.674 113.436 152.338 112.655 152.77 111.628L153.205 113.112C152.773 114.139 152.048 114.948 151.03 115.537C150.032 116.127 148.783 116.399 147.283 116.353Z" fill="white"/>
<path d="M169.679 110.701L169.951 108.861L177.727 110.01L177.455 111.85L169.679 110.701Z" fill="white"/>
<path d="M196.498 123.605C194.991 123.205 193.725 122.517 192.701 121.542C191.701 120.552 191.017 119.388 190.649 118.048C190.285 116.689 190.304 115.256 190.704 113.748C191.109 112.221 191.804 110.968 192.789 109.988C193.773 109.007 194.942 108.345 196.296 108.001C197.669 107.662 199.109 107.693 200.617 108.093C201.912 108.437 203.015 108.999 203.926 109.778C204.836 110.558 205.457 111.53 205.79 112.694L203.976 113.33C203.659 112.418 203.163 111.676 202.487 111.104C201.812 110.531 201.019 110.124 200.111 109.883C199.028 109.596 197.986 109.588 196.982 109.859C195.984 110.112 195.116 110.616 194.377 111.371C193.638 112.127 193.11 113.104 192.792 114.303C192.473 115.501 192.448 116.612 192.714 117.634C192.981 118.657 193.482 119.535 194.218 120.269C194.96 120.983 195.872 121.484 196.955 121.771C197.863 122.012 198.753 122.052 199.623 121.89C200.494 121.728 201.291 121.339 202.013 120.724L203.272 122.176C202.411 123.003 201.39 123.538 200.207 123.783C199.03 124.009 197.794 123.949 196.498 123.605Z" fill="white"/>
<path d="M207.504 126.675L213.026 111.925L215.021 112.672L210.635 124.388L224.883 116.365L226.653 117.027L221.13 131.777L219.135 131.03L223.532 119.287L209.302 127.349L207.504 126.675Z" fill="white"/>
<path d="M225.015 133.35L225.958 131.775C226.075 131.855 226.179 131.939 226.269 132.028C226.385 132.108 226.488 132.17 226.578 132.214C227.152 132.497 227.716 132.507 228.269 132.244C228.84 131.991 229.392 131.549 229.925 130.92C230.458 130.291 230.981 129.545 231.495 128.684C232.018 127.804 232.531 126.92 233.036 126.032L235.758 121.119L246.118 126.224L239.156 140.352L237.246 139.41L243.664 126.386L243.87 127.19L236.174 123.397L236.923 123.031L234.692 127.015C234.037 128.208 233.364 129.326 232.672 130.367C231.998 131.418 231.31 132.294 230.608 132.995C229.923 133.706 229.219 134.184 228.496 134.43C227.782 134.658 227.048 134.586 226.295 134.215C226.079 134.108 225.864 133.98 225.648 133.829C225.451 133.687 225.24 133.527 225.015 133.35Z" fill="white"/>
<path d="M253.706 149.041L255.539 146.083L255.762 145.551L258.828 140.604C259.534 139.465 259.754 138.389 259.487 137.377C259.237 136.375 258.483 135.484 257.225 134.705C256.358 134.167 255.444 133.801 254.483 133.605C253.522 133.41 252.622 133.381 251.783 133.52L251.804 131.663C252.843 131.506 253.933 131.57 255.074 131.854C256.226 132.121 257.329 132.581 258.383 133.234C260.118 134.309 261.183 135.569 261.581 137.016C262.006 138.456 261.676 140.051 260.591 141.802L255.44 150.115L253.706 149.041ZM249.011 146.308C248.008 145.686 247.233 144.982 246.685 144.196C246.164 143.403 245.888 142.596 245.855 141.776C245.833 140.938 246.059 140.137 246.533 139.372C246.965 138.675 247.516 138.146 248.187 137.785C248.885 137.418 249.713 137.296 250.672 137.42C251.658 137.537 252.789 137.991 254.064 138.781L258.679 141.641L257.842 142.992L253.277 140.164C251.985 139.363 250.942 139.034 250.148 139.177C249.37 139.331 248.771 139.747 248.349 140.427C247.875 141.192 247.794 141.989 248.104 142.817C248.415 143.644 249.105 144.39 250.176 145.054C251.196 145.686 252.214 145.999 253.23 145.993C254.273 145.98 255.238 145.638 256.126 144.964L255.76 146.467C254.872 147.14 253.84 147.477 252.663 147.477C251.503 147.488 250.286 147.098 249.011 146.308Z" fill="white"/>
</svg>
