<svg width="402" height="333" viewBox="0 0 402 333" fill="none" xmlns="http://www.w3.org/2000/svg">
<path d="M19.1315 165.652L23.7939 153.282L25.659 154.245L20.4723 167.821L19.1315 165.652ZM11.5755 153.429L29.438 142.386L30.5738 144.224L12.7112 155.266L11.5755 153.429ZM20.5555 149.641L22.2141 148.616L25.6687 154.204L24.0101 155.229L20.5555 149.641ZM24.6564 155.077L23.8899 153.152L36.8363 154.354L38.0982 156.396L24.6564 155.077Z" fill="white"/>
<path d="M25.864 176.876C24.9356 175.672 24.3679 174.38 24.1611 172.999C23.9823 171.621 24.1542 170.288 24.6767 169.001C25.2151 167.702 26.1018 166.576 27.3369 165.623C28.5879 164.658 29.9023 164.086 31.2799 163.907C32.6576 163.728 33.9822 163.906 35.2536 164.441C36.525 164.975 37.631 165.853 38.5717 167.072C39.5246 168.307 40.0984 169.607 40.293 170.973C40.4998 172.354 40.3359 173.68 39.8011 174.952C39.2786 176.239 38.3919 177.365 37.1409 178.33C35.9057 179.283 34.5914 179.855 33.1979 180.046C31.8324 180.241 30.4999 180.069 29.2005 179.531C27.9169 178.98 26.8047 178.095 25.864 176.876ZM27.3605 175.721C28.0568 176.624 28.8717 177.271 29.8051 177.662C30.7544 178.041 31.7459 178.148 32.7797 177.982C33.8416 177.819 34.8555 177.365 35.8215 176.62C36.8033 175.863 37.4995 174.997 37.9103 174.023C38.3333 173.066 38.474 172.086 38.3323 171.083C38.2065 170.069 37.8015 169.118 37.1174 168.232C36.4332 167.345 35.6165 166.712 34.6673 166.333C33.7339 165.942 32.7442 165.821 31.6981 165.971C30.652 166.122 29.6381 166.575 28.6564 167.333C27.6904 168.078 26.9941 168.944 26.5675 169.93C26.1567 170.903 26.0143 171.897 26.1401 172.912C26.2817 173.914 26.6885 174.85 27.3605 175.721Z" fill="white"/>
<path d="M32.5067 187.076L43.7214 176.017L45.238 177.555L41.6427 191.128L41.0108 190.487L54.7169 187.168L56.1071 188.578L44.8924 199.636L43.5232 198.248L53.0077 188.895L53.1533 189.299L40.4037 192.35L39.7297 191.666L43.0016 178.834L43.3817 179.091L33.8759 188.464L32.5067 187.076Z" fill="white"/>
<path d="M48.0261 204.397L57.7953 192.043L59.4896 193.382L57.5912 207.294L56.8852 206.736L70.0789 201.756L71.632 202.984L61.8628 215.338L60.3333 214.129L68.5952 203.681L68.7895 204.064L56.5119 208.659L55.7589 208.064L57.4274 194.926L57.8362 195.135L49.5557 205.606L48.0261 204.397Z" fill="white"/>
<path d="M63.1404 224.512C62.5216 224.106 61.9937 223.616 61.5567 223.043C61.1364 222.48 60.8571 221.866 60.719 221.202L62.4188 220.415C62.5449 220.952 62.7454 221.431 63.0204 221.85C63.3012 222.297 63.684 222.68 64.169 222.998C64.7544 223.382 65.3658 223.544 66.0033 223.483C66.6465 223.451 67.4292 223.151 68.3512 222.584L70.471 221.211L70.8526 221.067L84.2834 212.403L86.0394 213.555L69.768 223.979C68.8407 224.591 67.9868 224.999 67.2062 225.205C66.4423 225.422 65.7353 225.46 65.0852 225.321C64.4242 225.198 63.7759 224.929 63.1404 224.512ZM69.6796 222.199L72.4926 204.671L74.3491 205.888L71.7878 221.501L69.6796 222.199Z" fill="white"/>
<path d="M79.4945 229.039L86.6874 215.028L88.5823 216L85.4037 222.192L94.2377 226.727L97.4163 220.535L99.3112 221.508L92.1183 235.52L90.2234 234.547L93.402 228.355L84.568 223.82L81.3894 230.012L79.4945 229.039Z" fill="white"/>
<path d="M96.9079 238.872L102.585 224.181L104.572 224.948L100.063 236.618L114.394 228.744L116.157 229.425L110.48 244.116L108.493 243.349L113.013 231.651L98.6988 239.564L96.9079 238.872Z" fill="white"/>
<path d="M126.886 249.895L122.794 240.617L124.785 240.093L129.31 250.587L126.886 249.895ZM115.779 246.727L120.1 231.581L122.148 232.165L117.828 247.311L115.779 246.727ZM119.119 240.379L119.621 238.62L124.496 240.01L123.994 241.77L119.119 240.379ZM124.628 241.296L122.807 240.464L130.976 234.684L133.197 235.317L124.628 241.296Z" fill="white"/>
<path d="M141.877 253.794L142.523 250.374L142.541 249.798L143.622 244.079C143.871 242.762 143.688 241.679 143.075 240.831C142.482 239.986 141.458 239.426 140.004 239.151C139.002 238.962 138.017 238.949 137.05 239.112C136.083 239.275 135.233 239.572 134.5 240.004L133.852 238.263C134.764 237.743 135.804 237.411 136.971 237.265C138.143 237.1 139.337 237.132 140.556 237.362C142.56 237.741 144.008 238.534 144.9 239.741C145.814 240.931 146.08 242.539 145.698 244.563L143.882 254.173L141.877 253.794ZM136.514 252.933C135.354 252.714 134.377 252.336 133.583 251.799C132.812 251.246 132.264 250.593 131.939 249.839C131.617 249.066 131.539 248.237 131.706 247.353C131.859 246.547 132.183 245.855 132.679 245.277C133.198 244.683 133.927 244.272 134.866 244.042C135.829 243.796 137.047 243.813 138.521 244.092L143.856 245.1L143.561 246.662L138.284 245.665C136.791 245.383 135.699 245.451 135.009 245.87C134.339 246.293 133.929 246.898 133.781 247.684C133.614 248.568 133.824 249.341 134.411 250.001C134.999 250.662 135.912 251.109 137.15 251.343C138.329 251.566 139.391 251.492 140.337 251.121C141.305 250.734 142.083 250.067 142.669 249.12L142.868 250.653C142.281 251.601 141.439 252.286 140.342 252.71C139.264 253.137 137.988 253.211 136.514 252.933Z" fill="white"/>
<path d="M149.037 255.935L150.303 240.236L152.426 240.408L151.309 254.253L160.908 255.027L162.025 241.182L164.148 241.353L162.882 257.052L149.037 255.935ZM163.114 260.893L163.434 256.916L163.958 257.139L160.759 256.881L160.908 255.027L165.573 255.403L165.117 261.055L163.114 260.893Z" fill="white"/>
<path d="M169.063 258.34L168.639 242.596L170.768 242.539L171.105 255.044L181.294 242.255L183.183 242.204L183.608 257.948L181.478 258.006L181.141 245.47L170.982 258.289L169.063 258.34Z" fill="white"/>
<path d="M199.672 257.118L198.969 251.492L199.412 251.89L194.113 252.553C192.109 252.803 190.486 252.563 189.246 251.831C188.006 251.099 187.281 249.9 187.073 248.233C186.849 246.447 187.288 245.041 188.39 244.017C189.489 242.972 191.05 242.324 193.075 242.071L199.653 241.248L201.607 256.877L199.672 257.118ZM188.241 258.548L191.776 251.998L193.979 251.723L190.534 258.261L188.241 258.548ZM198.891 250.867L197.871 242.711L198.336 243.287L193.365 243.909C191.916 244.09 190.82 244.509 190.076 245.167C189.351 245.822 189.067 246.774 189.223 248.024C189.514 250.346 191.137 251.322 194.094 250.953L199.215 250.313L198.891 250.867Z" fill="white"/>
<path d="M215.36 255.445L211.294 240.229L218.018 238.432C219.738 237.973 221.178 237.94 222.339 238.333C223.52 238.722 224.28 239.554 224.621 240.829C224.951 242.066 224.733 243.148 223.967 244.078C223.196 244.988 222.037 245.649 220.492 246.062L220.735 245.345C222.551 244.86 223.975 244.842 225.006 245.291C226.036 245.74 226.722 246.602 227.063 247.877C227.414 249.191 227.205 250.344 226.435 251.337C225.679 252.305 224.296 253.057 222.287 253.594L215.36 255.445ZM216.926 253.287L221.766 251.994C223.061 251.648 223.982 251.185 224.531 250.603C225.093 249.998 225.251 249.231 225.003 248.304C224.755 247.376 224.275 246.78 223.563 246.515C222.85 246.25 221.846 246.29 220.552 246.636L215.509 247.983L216.926 253.287ZM215.098 246.447L219.678 245.224C220.856 244.909 221.695 244.447 222.195 243.837C222.714 243.222 222.86 242.49 222.633 241.64C222.405 240.789 221.916 240.237 221.165 239.982C220.433 239.722 219.478 239.75 218.299 240.065L213.72 241.288L215.098 246.447Z" fill="white"/>
<path d="M246.615 246.641C245.217 247.237 243.823 247.462 242.434 247.315C241.056 247.142 239.809 246.641 238.695 245.812C237.572 244.965 236.705 243.824 236.092 242.389C235.472 240.936 235.249 239.52 235.422 238.141C235.595 236.763 236.099 235.526 236.936 234.429C237.773 233.333 238.9 232.482 240.316 231.878C241.751 231.266 243.154 231.037 244.524 231.192C245.913 231.338 247.156 231.83 248.252 232.667C249.367 233.496 250.235 234.637 250.855 236.09C251.467 237.525 251.691 238.941 251.525 240.338C251.371 241.708 250.87 242.955 250.023 244.078C249.167 245.182 248.031 246.036 246.615 246.641ZM245.873 244.902C246.922 244.455 247.753 243.828 248.366 243.023C248.971 242.2 249.323 241.267 249.422 240.224C249.531 239.155 249.347 238.06 248.868 236.938C248.381 235.797 247.718 234.906 246.879 234.264C246.058 233.614 245.145 233.232 244.139 233.117C243.126 232.984 242.104 233.138 241.074 233.577C240.044 234.017 239.226 234.648 238.621 235.472C238.007 236.277 237.642 237.205 237.525 238.255C237.408 239.305 237.592 240.401 238.079 241.541C238.558 242.663 239.221 243.555 240.068 244.215C240.907 244.857 241.834 245.245 242.847 245.378C243.853 245.492 244.861 245.334 245.873 244.902Z" fill="white"/>
<path d="M265.192 238.653C264.074 239.275 262.975 239.645 261.897 239.764C260.836 239.873 259.791 239.722 258.762 239.311C257.732 238.899 256.754 238.23 255.827 237.304C254.89 236.36 254.013 235.154 253.197 233.686C252.468 232.375 251.954 231.162 251.654 230.047C251.345 228.915 251.21 227.869 251.248 226.909C251.287 225.95 251.458 225.065 251.763 224.254C252.075 223.417 252.49 222.66 253.006 221.984C253.53 221.281 254.116 220.646 254.763 220.081L260.148 215.198L261.425 216.754L256.334 221.301C256.015 221.593 255.637 221.963 255.2 222.412C254.781 222.851 254.388 223.378 254.021 223.994C253.672 224.6 253.425 225.31 253.282 226.122C253.138 226.934 253.174 227.863 253.39 228.91C253.614 229.93 254.091 231.095 254.82 232.406C254.975 232.686 255.11 232.908 255.225 233.073C255.33 233.221 255.444 233.386 255.569 233.569C255.701 233.724 255.873 233.972 256.085 234.311L254.893 234.082C254.492 232.909 254.371 231.763 254.527 230.646C254.675 229.512 255.073 228.478 255.721 227.546C256.377 226.586 257.256 225.8 258.357 225.187C259.633 224.478 260.925 224.126 262.232 224.131C263.53 224.119 264.731 224.447 265.834 225.115C266.955 225.773 267.875 226.749 268.595 228.042C269.304 229.318 269.644 230.628 269.613 231.973C269.6 233.307 269.221 234.559 268.475 235.729C267.72 236.881 266.626 237.856 265.192 238.653ZM264.542 236.989C265.521 236.445 266.264 235.745 266.773 234.89C267.272 234.018 267.517 233.081 267.509 232.078C267.519 231.066 267.256 230.079 266.721 229.118C266.197 228.174 265.512 227.457 264.666 226.965C263.839 226.465 262.932 226.213 261.947 226.212C260.953 226.193 259.957 226.46 258.961 227.014C257.982 227.558 257.234 228.249 256.715 229.087C256.187 229.907 255.909 230.805 255.88 231.782C255.869 232.75 256.13 233.714 256.665 234.676C257.199 235.637 257.89 236.385 258.737 236.921C259.602 237.447 260.537 237.729 261.541 237.765C262.563 237.792 263.563 237.533 264.542 236.989Z" fill="white"/>
<path d="M284.465 224.366L284.427 225.111L275.682 213.595L277.378 212.307L286.124 223.823L285.325 223.713L292.325 218.397L292.216 219.196L283.471 207.68L285.167 206.392L294.692 218.935L277.347 232.107L267.822 219.564L269.518 218.276L278.263 229.792L277.488 229.664L284.465 224.366ZM297.113 221.429L294.682 218.227L295.457 218.355L292.901 220.296L291.776 218.815L295.503 215.984L298.714 220.213L297.113 221.429Z" fill="white"/>
<path d="M304.577 211.538C303.375 212.654 302.088 213.384 300.717 213.73C299.332 214.06 297.974 214.024 296.645 213.621C295.302 213.203 294.1 212.422 293.038 211.279C291.977 210.136 291.28 208.9 290.947 207.571C290.629 206.229 290.664 204.914 291.051 203.627C291.44 202.311 292.169 201.156 293.239 200.163C294.324 199.156 295.516 198.514 296.814 198.237C298.113 197.931 299.419 198.001 300.733 198.446C302.033 198.877 303.221 199.671 304.296 200.829C304.364 200.902 304.431 200.99 304.498 201.091C304.566 201.164 304.641 201.245 304.723 201.333L294.675 210.66L293.593 209.495L302.805 200.943L302.618 201.977C301.843 201.141 300.972 200.571 300.007 200.266C299.043 199.933 298.083 199.869 297.127 200.074C296.172 200.279 295.291 200.756 294.484 201.504C293.693 202.239 293.152 203.082 292.862 204.034C292.572 204.985 292.557 205.954 292.818 206.94C293.078 207.926 293.603 208.845 294.392 209.695L294.617 209.937C295.433 210.816 296.345 211.416 297.352 211.737C298.36 212.029 299.385 212.046 300.428 211.787C301.472 211.501 302.441 210.942 303.335 210.112C304.038 209.459 304.575 208.729 304.945 207.922C305.329 207.101 305.503 206.23 305.466 205.309L307.285 205.504C307.343 206.596 307.134 207.664 306.656 208.707C306.193 209.737 305.5 210.681 304.577 211.538Z" fill="white"/>
<path d="M319.673 199.328C318.626 200.484 317.434 201.293 316.098 201.756C314.76 202.19 313.411 202.264 312.052 201.977C310.678 201.676 309.413 201.002 308.257 199.955C307.086 198.894 306.291 197.701 305.871 196.377C305.452 195.052 305.4 193.71 305.715 192.349C306.044 190.974 306.732 189.708 307.779 188.552C308.679 187.559 309.684 186.837 310.794 186.385C311.905 185.934 313.054 185.828 314.241 186.067L313.974 187.97C313.018 187.833 312.131 187.934 311.312 188.271C310.494 188.609 309.769 189.126 309.137 189.823C308.385 190.653 307.9 191.576 307.681 192.592C307.447 193.595 307.497 194.598 307.829 195.601C308.162 196.604 308.788 197.522 309.707 198.354C310.626 199.187 311.601 199.719 312.632 199.952C313.663 200.184 314.673 200.141 315.662 199.823C316.637 199.492 317.501 198.911 318.253 198.081C318.884 197.385 319.327 196.613 319.583 195.765C319.838 194.917 319.858 194.031 319.643 193.107L321.511 192.654C321.85 193.798 321.858 194.951 321.533 196.114C321.193 197.264 320.573 198.335 319.673 199.328Z" fill="white"/>
<path d="M330.555 187.63L319.114 178.787L319.895 178.709L315.914 183.86L314.442 182.722L323.046 171.589L324.518 172.727L320.537 177.878L320.416 177.102L331.857 185.944L330.555 187.63Z" fill="white"/>
<path d="M336.974 177.083L323.647 168.689L327.356 162.8C328.305 161.294 329.339 160.29 330.458 159.79C331.587 159.272 332.711 159.365 333.828 160.069C334.911 160.751 335.487 161.693 335.557 162.895C335.61 164.087 335.211 165.36 334.358 166.713L334.049 166.022C335.051 164.432 336.082 163.45 337.144 163.079C338.205 162.707 339.294 162.873 340.411 163.577C341.562 164.301 342.192 165.289 342.302 166.541C342.406 167.764 341.904 169.256 340.795 171.016L336.974 177.083ZM336.656 174.436L339.326 170.197C340.04 169.063 340.4 168.097 340.407 167.297C340.408 166.47 340.002 165.801 339.19 165.29C338.378 164.778 337.62 164.667 336.918 164.957C336.215 165.248 335.506 165.96 334.792 167.093L332.01 171.51L336.656 174.436ZM330.665 170.663L333.191 166.652C333.841 165.62 334.142 164.71 334.094 163.924C334.057 163.12 333.666 162.484 332.921 162.015C332.176 161.546 331.442 161.473 330.718 161.797C330.005 162.104 329.323 162.774 328.673 163.806L326.146 167.817L330.665 170.663Z" fill="white"/>
<path d="M350.368 154.16C349.63 155.624 348.678 156.757 347.513 157.558C346.329 158.35 345.044 158.789 343.658 158.874C342.253 158.949 340.855 158.636 339.462 157.934C338.069 157.232 336.985 156.316 336.211 155.186C335.445 154.039 335.02 152.794 334.935 151.452C334.841 150.083 335.123 148.747 335.78 147.443C336.446 146.122 337.34 145.105 338.46 144.393C339.572 143.655 340.821 143.265 342.207 143.225C343.576 143.176 344.966 143.507 346.377 144.218C346.466 144.263 346.56 144.322 346.658 144.394C346.747 144.439 346.845 144.488 346.952 144.542L340.78 156.784L339.36 156.069L345.019 144.845L345.204 145.878C344.186 145.365 343.171 145.134 342.161 145.184C341.141 145.207 340.219 145.481 339.394 146.006C338.569 146.531 337.909 147.285 337.414 148.267C336.928 149.232 336.715 150.21 336.774 151.203C336.833 152.196 337.157 153.11 337.744 153.944C338.332 154.777 339.143 155.455 340.179 155.978L340.474 156.126C341.545 156.666 342.609 156.911 343.665 156.861C344.711 156.784 345.678 156.443 346.566 155.838C347.445 155.206 348.158 154.345 348.708 153.256C349.14 152.398 349.389 151.527 349.454 150.642C349.529 149.739 349.389 148.862 349.034 148.011L350.806 147.56C351.241 148.564 351.416 149.638 351.332 150.782C351.257 151.909 350.936 153.035 350.368 154.16Z" fill="white"/>
</svg>
