<svg width="366" height="338" viewBox="0 0 366 338" fill="none" xmlns="http://www.w3.org/2000/svg">
<path d="M11.5783 161.986L27.8286 148.684L39.0207 162.358L22.7704 175.659L21.3832 173.965L36.6122 161.499L36.5089 162.32L27.369 151.154L28.1943 151.215L12.9654 163.68L11.5783 161.986Z" fill="white"/>
<path d="M32.2677 187.337C31.2987 186.383 30.6399 185.299 30.2911 184.085C29.9565 182.857 29.968 181.591 30.3257 180.288C30.7117 178.983 31.5082 177.719 32.715 176.493C33.9219 175.268 35.1673 174.459 36.4513 174.067C37.7493 173.661 39.0077 173.624 40.2265 173.954C41.4453 174.284 42.5463 174.933 43.5296 175.901C44.5983 176.954 45.3145 178.136 45.6781 179.449C46.07 180.761 46.0802 182.09 45.7086 183.437C45.3511 184.769 44.6181 185.998 43.5094 187.124C42.3867 188.264 41.1621 189.022 39.8356 189.4C38.5091 189.778 37.1798 189.788 35.8477 189.431C34.5298 189.087 33.3365 188.389 32.2677 187.337ZM22.4966 185.672L37.6317 170.304L39.0852 171.735L35.7593 175.112L33.3994 177.209L31.3818 179.685L24.0142 187.167L22.4966 185.672ZM33.487 185.885C34.285 186.671 35.1729 187.194 36.1508 187.456C37.1426 187.703 38.1466 187.681 39.1626 187.39C40.1927 187.085 41.1357 186.498 41.9918 185.629C42.8478 184.76 43.4134 183.815 43.6884 182.795C43.9634 181.774 43.9699 180.77 43.7078 179.782C43.4456 178.794 42.9156 177.907 42.1176 177.121C41.3196 176.335 40.4175 175.812 39.4114 175.551C38.4195 175.304 37.4156 175.326 36.3995 175.616C35.3977 175.921 34.4688 176.508 33.6128 177.377C32.7567 178.247 32.1771 179.191 31.8737 180.212C31.5987 181.232 31.5923 182.237 31.8544 183.225C32.1448 184.212 32.689 185.099 33.487 185.885Z" fill="white"/>
<path d="M46.2273 201.067C45.0411 200.117 44.1846 198.995 43.6577 197.701C43.1589 196.404 43.0116 195.069 43.2157 193.695C43.4323 192.305 44.0284 191.001 45.0038 189.784C45.9918 188.551 47.1341 187.685 48.4307 187.186C49.7274 186.688 51.0565 186.548 52.4182 186.768C53.7799 186.988 55.0616 187.579 56.2634 188.542C57.4808 189.517 58.3451 190.646 58.8563 191.927C59.3832 193.22 59.5368 194.548 59.3171 195.909C59.113 197.284 58.5169 198.587 57.529 199.82C56.5535 201.038 55.4112 201.903 54.102 202.418C52.821 202.929 51.4856 203.076 50.0958 202.86C48.7186 202.628 47.429 202.03 46.2273 201.067ZM47.4091 199.592C48.2987 200.305 49.2432 200.741 50.2426 200.901C51.2545 201.046 52.2432 200.915 53.2087 200.51C54.2022 200.102 55.0805 199.422 55.8433 198.469C56.6187 197.502 57.0911 196.496 57.2606 195.453C57.4457 194.423 57.3512 193.437 56.9771 192.497C56.6156 191.541 55.9977 190.712 55.1237 190.012C54.2497 189.312 53.3067 188.889 52.2948 188.745C51.2954 188.585 50.3052 188.701 49.3241 189.094C48.3431 189.487 47.4648 190.167 46.6895 191.135C45.9266 192.087 45.4542 193.092 45.2722 194.151C45.1027 195.194 45.1987 196.194 45.5603 197.15C45.9344 198.09 46.5507 198.904 47.4091 199.592Z" fill="white"/>
<path d="M61.9233 213.552C60.5499 212.656 59.5298 211.584 58.863 210.337C58.2071 209.073 57.914 207.747 57.9836 206.36C58.0642 204.955 58.5307 203.6 59.3833 202.294C60.2359 200.987 61.2665 200.012 62.475 199.368C63.7003 198.734 64.9845 198.45 66.3275 198.514C67.6983 198.573 68.995 199.001 70.2177 199.799C71.4571 200.608 72.3683 201.609 72.9514 202.801C73.5621 203.988 73.8104 205.273 73.6964 206.655C73.5933 208.021 73.11 209.365 72.2465 210.688C72.1918 210.772 72.1233 210.859 72.041 210.948C71.9863 211.032 71.9262 211.124 71.8606 211.225L60.3793 203.732L61.2483 202.4L71.7749 209.27L70.7271 209.338C71.3502 208.384 71.6928 207.401 71.755 206.391C71.8449 205.375 71.6748 204.428 71.2446 203.55C70.8144 202.673 70.1387 201.933 69.2175 201.332C68.3131 200.742 67.3641 200.421 66.3707 200.37C65.3772 200.318 64.4336 200.538 63.5397 201.03C62.6459 201.521 61.882 202.252 61.248 203.224L61.0676 203.5C60.4118 204.505 60.0502 205.535 59.9829 206.59C59.9433 207.638 60.1749 208.637 60.6779 209.587C61.2086 210.53 61.9848 211.335 63.0065 212.002C63.8104 212.527 64.6487 212.871 65.5212 213.034C66.4104 213.208 67.2976 213.166 68.1826 212.908L68.4334 214.72C67.3881 215.04 66.3013 215.095 65.1732 214.885C64.0618 214.685 62.9785 214.24 61.9233 213.552Z" fill="white"/>
<path d="M82.3352 226.016L80.2453 216.093L82.3008 215.991L84.5638 227.192L82.3352 226.016ZM72.1207 220.625L79.4724 206.696L81.3561 207.69L74.0044 221.619L72.1207 220.625ZM76.6975 215.102L77.5517 213.484L82.0355 215.851L81.1813 217.469L76.6975 215.102ZM81.8998 217.136L80.2888 215.946L89.4747 211.975L91.5176 213.053L81.8998 217.136Z" fill="white"/>
<path d="M90.8311 230.573L96.5755 217.303L96.8446 218.041L90.8704 215.455L91.6093 213.748L104.521 219.337L103.782 221.044L97.8082 218.458L98.5302 218.15L92.7858 231.42L90.8311 230.573Z" fill="white"/>
<path d="M101.502 235.987L106.197 220.953L108.231 221.589L106.156 228.232L115.634 231.193L117.709 224.549L119.742 225.184L115.046 240.218L113.013 239.583L115.088 232.939L105.61 229.979L103.535 236.622L101.502 235.987Z" fill="white"/>
<path d="M130.841 244.74L131.573 241.337L131.605 240.761L132.829 235.071C133.111 233.761 132.956 232.675 132.364 231.811C131.792 230.951 130.783 230.366 129.336 230.055C128.339 229.84 127.355 229.802 126.384 229.941C125.413 230.08 124.556 230.356 123.812 230.769L123.208 229.013C124.133 228.516 125.181 228.21 126.352 228.093C127.527 227.957 128.72 228.02 129.932 228.28C131.927 228.709 133.354 229.538 134.215 230.767C135.1 231.98 135.326 233.593 134.893 235.607L132.836 245.169L130.841 244.74ZM125.501 243.744C124.348 243.496 123.381 243.094 122.6 242.537C121.844 241.965 121.312 241.299 121.005 240.537C120.703 239.756 120.646 238.926 120.835 238.046C121.008 237.244 121.349 236.561 121.86 235.995C122.394 235.415 123.133 235.021 124.077 234.815C125.045 234.594 126.263 234.641 127.729 234.956L133.038 236.098L132.703 237.653L127.454 236.523C125.968 236.204 124.874 236.245 124.174 236.647C123.494 237.053 123.069 237.647 122.901 238.429C122.712 239.309 122.903 240.086 123.473 240.761C124.044 241.436 124.945 241.906 126.177 242.171C127.35 242.424 128.414 242.376 129.369 242.029C130.347 241.667 131.141 241.019 131.75 240.087L131.91 241.625C131.301 242.557 130.442 243.222 129.334 243.617C128.245 244.018 126.968 244.06 125.501 243.744Z" fill="white"/>
<path d="M149.107 248.238L149.75 242.605L150.087 243.096L144.781 242.491C142.774 242.261 141.254 241.645 140.222 240.641C139.189 239.638 138.768 238.301 138.958 236.632C139.163 234.844 139.921 233.582 141.233 232.846C142.547 232.09 144.217 231.828 146.244 232.059L152.831 232.811L151.045 248.46L149.107 248.238ZM137.662 246.932L142.641 241.401L144.847 241.653L139.957 247.194L137.662 246.932ZM149.822 241.979L150.754 233.812L151.07 234.482L146.093 233.914C144.642 233.748 143.478 233.897 142.6 234.361C141.741 234.826 141.241 235.685 141.098 236.937C140.832 239.262 142.18 240.593 145.141 240.931L150.267 241.517L149.822 241.979Z" fill="white"/>
<path d="M176.288 249.173L175.962 236.307L168.374 236.5L168.283 240.013C168.27 241.074 168.227 242.115 168.153 243.137C168.098 244.159 167.972 245.103 167.774 245.968C167.596 246.813 167.323 247.51 166.957 248.059C166.59 248.589 166.108 248.901 165.51 248.996L163.371 248.66C163.991 248.665 164.496 248.432 164.884 247.962C165.272 247.472 165.565 246.814 165.764 245.989C165.963 245.164 166.1 244.23 166.173 243.188C166.246 242.125 166.299 241.044 166.331 239.943L166.408 234.689L178.044 234.394L178.418 249.119L176.288 249.173ZM162.855 254.345L162.711 248.677L180.855 248.217L180.999 253.885L178.99 253.936L178.893 250.127L164.768 250.486L164.864 254.294L162.855 254.345Z" fill="white"/>
<path d="M192.309 249.858C190.682 250.063 189.211 249.905 187.896 249.385C186.578 248.846 185.497 248.024 184.652 246.921C183.806 245.798 183.285 244.463 183.09 242.915C182.895 241.367 183.05 239.957 183.555 238.684C184.08 237.408 184.875 236.361 185.941 235.541C187.025 234.699 188.291 234.187 189.739 234.005C191.208 233.82 192.55 233.994 193.766 234.526C194.999 235.036 196.019 235.855 196.827 236.983C197.631 238.091 198.132 239.429 198.33 240.997C198.342 241.096 198.346 241.206 198.341 241.328C198.354 241.427 198.367 241.536 198.382 241.655L184.78 243.367L184.581 241.79L197.053 240.22L196.298 240.95C196.156 239.819 195.781 238.848 195.175 238.037C194.587 237.204 193.844 236.592 192.949 236.201C192.053 235.81 191.059 235.683 189.968 235.82C188.896 235.955 187.965 236.324 187.174 236.928C186.383 237.531 185.806 238.31 185.442 239.262C185.078 240.215 184.969 241.267 185.114 242.418L185.155 242.746C185.305 243.936 185.695 244.955 186.326 245.803C186.974 246.629 187.797 247.241 188.795 247.639C189.809 248.016 190.922 248.127 192.133 247.975C193.085 247.855 193.947 247.575 194.718 247.136C195.509 246.693 196.158 246.088 196.666 245.318L198.029 246.537C197.44 247.458 196.646 248.203 195.65 248.772C194.673 249.339 193.559 249.7 192.309 249.858Z" fill="white"/>
<path d="M214.598 246.499L213.347 240.968L213.827 241.321L208.618 242.499C206.648 242.945 205.01 242.864 203.704 242.258C202.398 241.651 201.559 240.528 201.189 238.889C200.792 237.134 201.091 235.692 202.087 234.565C203.078 233.418 204.569 232.619 206.559 232.169L213.025 230.707L216.5 246.069L214.598 246.499ZM203.362 249.04L206.238 242.176L208.404 241.687L205.615 248.531L203.362 249.04ZM213.208 240.354L211.395 232.337L211.914 232.865L207.028 233.97C205.603 234.292 204.553 234.817 203.877 235.544C203.22 236.267 203.031 237.242 203.309 238.471C203.825 240.754 205.537 241.566 208.443 240.909L213.476 239.771L213.208 240.354Z" fill="white"/>
<path d="M226.115 243.964L221.87 230.141L222.554 230.527L216.33 232.439L215.784 230.661L229.234 226.53L229.78 228.308L223.557 230.219L223.906 229.516L228.151 243.338L226.115 243.964Z" fill="white"/>
<path d="M243.85 238.575C242.335 239.203 240.875 239.441 239.469 239.288C238.055 239.117 236.795 238.611 235.689 237.771C234.575 236.912 233.719 235.763 233.121 234.322C232.523 232.881 232.299 231.48 232.449 230.118C232.617 228.749 233.107 227.529 233.918 226.456C234.739 225.357 235.824 224.528 237.173 223.969C238.54 223.401 239.88 223.213 241.194 223.405C242.518 223.57 243.719 224.089 244.796 224.963C245.866 225.819 246.703 226.976 247.309 228.435C247.347 228.528 247.38 228.633 247.407 228.752C247.446 228.844 247.488 228.946 247.534 229.057L234.87 234.31L234.261 232.842L245.871 228.025L245.337 228.929C244.9 227.876 244.282 227.039 243.483 226.417C242.695 225.77 241.817 225.376 240.85 225.236C239.882 225.097 238.89 225.237 237.874 225.659C236.877 226.073 236.077 226.675 235.474 227.467C234.871 228.258 234.52 229.161 234.422 230.177C234.324 231.192 234.497 232.235 234.941 233.307L235.068 233.612C235.527 234.72 236.174 235.599 237.007 236.25C237.85 236.874 238.806 237.246 239.873 237.367C240.952 237.46 242.054 237.274 243.181 236.806C244.068 236.438 244.825 235.94 245.452 235.312C246.097 234.676 246.563 233.92 246.849 233.043L248.486 233.858C248.162 234.902 247.594 235.831 246.784 236.643C245.992 237.448 245.014 238.092 243.85 238.575Z" fill="white"/>
<path d="M252.597 235.722L251.863 234.039C251.996 233.991 252.124 233.956 252.249 233.934C252.382 233.885 252.492 233.837 252.58 233.79C253.144 233.487 253.48 233.034 253.587 232.431C253.712 231.819 253.673 231.114 253.471 230.314C253.268 229.515 252.966 228.656 252.563 227.737C252.15 226.801 251.729 225.869 251.299 224.942L248.881 219.873L259.054 214.405L266.511 228.278L264.635 229.286L257.761 216.497L258.534 216.796L250.977 220.858L251.114 220.035L253.061 224.165C253.652 225.392 254.171 226.589 254.617 227.757C255.081 228.915 255.394 229.984 255.557 230.964C255.738 231.934 255.718 232.785 255.498 233.516C255.269 234.23 254.784 234.785 254.044 235.183C253.833 235.297 253.603 235.397 253.355 235.485C253.125 235.564 252.872 235.643 252.597 235.722Z" fill="white"/>
<path d="M272.837 213.163C274.502 212.092 275.997 211.635 277.322 211.793C278.664 211.939 279.78 212.69 280.67 214.043C281.593 215.446 281.835 216.832 281.394 218.199C280.969 219.556 279.874 220.803 278.109 221.94L272.779 225.411L264.123 212.253L265.902 211.082L268.92 215.669L272.837 213.163ZM277.118 220.653C278.349 219.867 279.109 219.02 279.397 218.112C279.691 217.177 279.514 216.216 278.866 215.23C278.217 214.244 277.435 213.729 276.52 213.685C275.594 213.624 274.508 213.992 273.26 214.788L269.794 216.997L273.652 222.862L277.118 220.653Z" fill="white"/>
<path d="M287.641 216.489L277.665 204.301L279.313 202.952L283.722 208.338L291.406 202.048L286.998 196.663L288.646 195.314L298.622 207.501L296.974 208.85L292.565 203.465L284.881 209.754L289.29 215.14L287.641 216.489Z" fill="white"/>
<path d="M309.026 199.144C307.956 200.223 306.749 200.956 305.407 201.343C304.065 201.701 302.722 201.706 301.377 201.358C300.018 200.996 298.785 200.265 297.677 199.166C296.556 198.053 295.816 196.826 295.457 195.484C295.098 194.141 295.1 192.805 295.463 191.474C295.825 190.143 296.549 188.931 297.634 187.838C298.732 186.731 299.946 185.991 301.274 185.618C302.616 185.231 303.952 185.219 305.283 185.582C306.628 185.93 307.861 186.661 308.983 187.773C310.09 188.872 310.83 190.1 311.203 191.456C311.576 192.784 311.581 194.127 311.218 195.487C310.842 196.831 310.111 198.051 309.026 199.144ZM307.685 197.812C308.488 197.003 309.022 196.11 309.287 195.133C309.537 194.142 309.512 193.145 309.211 192.143C308.911 191.111 308.327 190.166 307.461 189.307C306.581 188.433 305.631 187.857 304.612 187.578C303.607 187.285 302.617 187.275 301.642 187.547C300.653 187.806 299.764 188.332 298.975 189.127C298.186 189.922 297.666 190.815 297.416 191.806C297.151 192.783 297.162 193.78 297.448 194.797C297.735 195.814 298.318 196.759 299.199 197.633C300.065 198.492 301.014 199.068 302.048 199.361C303.067 199.64 304.071 199.651 305.06 199.392C306.035 199.12 306.91 198.593 307.685 197.812Z" fill="white"/>
<path d="M322.795 185.102C321.796 186.3 320.639 187.159 319.323 187.676C318.005 188.166 316.66 188.296 315.29 188.066C313.905 187.823 312.613 187.203 311.414 186.204C310.2 185.193 309.355 184.035 308.881 182.729C308.407 181.423 308.299 180.084 308.557 178.712C308.828 177.324 309.462 176.03 310.461 174.831C311.318 173.802 312.292 173.038 313.383 172.541C314.474 172.044 315.617 171.89 316.813 172.079L316.625 173.992C315.665 173.895 314.783 174.032 313.979 174.404C313.175 174.775 312.472 175.322 311.871 176.045C311.154 176.905 310.708 177.848 310.531 178.872C310.34 179.884 310.431 180.884 310.805 181.872C311.179 182.86 311.843 183.751 312.796 184.545C313.749 185.338 314.745 185.829 315.785 186.018C316.825 186.208 317.832 186.123 318.808 185.764C319.768 185.392 320.606 184.776 321.323 183.915C321.924 183.193 322.335 182.403 322.555 181.545C322.775 180.687 322.758 179.801 322.504 178.887L324.351 178.356C324.739 179.485 324.794 180.637 324.518 181.813C324.226 182.976 323.652 184.072 322.795 185.102Z" fill="white"/>
<path d="M331.486 174.517L319.711 166.124L320.488 166.015L316.71 171.316L315.195 170.236L323.362 158.779L324.876 159.859L321.098 165.16L320.947 164.389L332.722 172.782L331.486 174.517Z" fill="white"/>
<path d="M333.247 154.292C334.265 152.594 335.403 151.522 336.661 151.076C337.928 150.614 339.261 150.792 340.659 151.611C342.108 152.46 342.938 153.595 343.149 155.017C343.369 156.421 342.94 158.024 341.861 159.826L338.621 165.298L325.031 157.336L326.108 155.499L330.845 158.274L333.247 154.292ZM340.403 159.11C341.158 157.861 341.464 156.765 341.32 155.823C341.17 154.854 340.585 154.071 339.567 153.475C338.549 152.878 337.62 152.763 336.78 153.128C335.923 153.484 335.111 154.295 334.346 155.562L332.217 159.077L338.274 162.626L340.403 159.11Z" fill="white"/>
</svg>
