<svg width="569" height="743" viewBox="0 0 569 743" fill="none" xmlns="http://www.w3.org/2000/svg">
<path d="M563.477 388.832L567.035 347.908C569.843 315.614 567.97 283.083 561.474 251.325L556.451 226.767C539.405 143.43 485.852 72.1452 410.557 32.5673C369.863 11.1767 324.578 0 278.604 0H240.882C201.943 0 163.588 9.46648 129.12 27.5839C50.1384 69.1 0.67776 150.976 0.677801 240.204L0.677882 416.823C0.677896 446.527 4.64883 476.097 12.4852 504.749L39.7811 604.55C60.814 681.452 128.17 736.65 207.706 742.162C270.993 746.548 332.208 718.641 370.405 667.99L391.555 639.942C407.659 618.587 427.056 599.929 449.02 584.665L450.69 583.504C515.331 538.583 556.657 467.252 563.477 388.832Z" fill="#6A009C"/>
</svg>
