<svg width="553" height="645" viewBox="0 0 553 645" fill="none" xmlns="http://www.w3.org/2000/svg">
<path d="M-91.2875 280.195C-107.087 205.129 -87.0931 147.132 -47.4784 104.158C-7.63809 60.9404 52.4398 32.5269 117.184 17.954C181.849 3.39902 281.492 -0.400718 368.821 18.4853C456.548 37.4573 529.342 78.6805 544.792 152.089C552.483 188.632 540.69 235.24 515.569 285.781C490.542 336.131 452.726 389.508 409.708 439.164C366.705 488.803 318.651 534.554 273.28 569.687C227.744 604.947 185.479 629.063 154.002 636.148C123.203 643.08 94.7218 634.51 68.4623 614.84C42.0785 595.077 18.1639 564.243 -2.92926 527.308C-45.1001 453.466 -75.1907 356.676 -91.2875 280.195Z" stroke="#DBFF00" stroke-width="11"/>
</svg>
